<?xml version="1.0" standalone="no"?>
<!DOCTYPE svg PUBLIC "-//W3C//DTD SVG 20010904//EN"
 "http://www.w3.org/TR/2001/REC-SVG-20010904/DTD/svg10.dtd">
<svg version="1.0" xmlns="http://www.w3.org/2000/svg"
 width="1000.000000pt" height="1000.000000pt" viewBox="0 0 1000.000000 1000.000000"
 preserveAspectRatio="xMidYMid meet">
<metadata>
Created by potrace 1.14, written by Peter Selinger 2001-2017
</metadata>
<g transform="translate(0.000000,1000.000000) scale(0.100000,-0.100000)"
fill="#000000" stroke="none">
<path d="M2857 9983 c4 -10 8 -12 10 -6 3 7 12 9 21 6 15 -4 15 -3 2 6 -23 17
-40 13 -33 -6z"/>
<path d="M4216 9958 c3 -24 10 -46 16 -49 7 -4 6 -9 -1 -14 -7 -3 -10 -14 -7
-23 3 -10 8 -44 12 -77 3 -33 10 -80 15 -105 6 -25 11 -58 12 -75 1 -16 6 -36
10 -42 5 -7 6 -16 3 -21 -5 -8 29 -185 41 -212 3 -8 5 -23 4 -34 -2 -12 1 -16
10 -11 8 6 10 4 4 -5 -4 -6 -3 -29 4 -49 28 -92 73 -247 75 -261 2 -8 9 -28
15 -45 7 -16 14 -38 16 -47 2 -9 9 -27 16 -40 7 -13 12 -24 11 -25 -3 -4 -3
-3 23 -78 14 -38 27 -74 28 -80 11 -36 22 -67 43 -113 13 -29 24 -57 24 -62 0
-5 11 -33 24 -62 14 -29 28 -66 31 -81 4 -15 11 -30 16 -33 5 -3 9 -11 9 -18
0 -8 8 -31 17 -52 9 -22 17 -41 18 -44 1 -3 5 -17 9 -32 5 -16 12 -28 16 -28
5 0 6 -8 3 -19 -2 -10 3 -25 12 -34 9 -9 13 -22 10 -27 -4 -6 -1 -17 5 -25 6
-8 9 -19 5 -25 -3 -5 -1 -10 4 -10 6 0 11 -13 11 -30 0 -16 5 -30 11 -30 6 0
9 -7 5 -15 -3 -8 0 -15 6 -15 7 0 7 -4 -1 -14 -8 -10 -9 -16 -1 -21 5 -3 7
-17 4 -31 -3 -13 -2 -24 3 -24 5 0 8 -20 8 -45 -1 -25 2 -45 7 -45 5 0 6 -5 3
-10 -6 -10 -9 -33 -20 -187 -6 -90 15 -85 30 7 3 19 10 37 15 40 5 3 7 19 4
34 -4 23 -2 27 11 23 23 -9 21 138 -4 226 -11 37 -18 67 -16 67 2 0 -2 19 -10
41 -20 55 -20 83 1 75 8 -3 13 -2 10 3 -3 5 13 12 37 15 23 4 78 15 121 26 44
10 83 17 87 14 4 -2 10 0 14 5 3 5 13 10 23 10 54 -1 296 13 303 16 4 3 19 1
34 -5 18 -7 31 -7 39 0 9 6 16 6 25 -3 9 -9 14 -9 20 2 6 10 10 10 16 1 4 -6
13 -9 21 -6 8 3 14 2 14 -2 0 -4 12 -7 28 -6 15 1 35 -3 44 -7 10 -6 19 -5 23
1 5 8 11 8 19 1 7 -6 28 -12 47 -13 19 -2 36 -6 39 -10 3 -4 21 -9 40 -11 19
-2 46 -9 60 -15 16 -6 29 -6 37 0 7 6 14 5 18 -2 13 -21 -7 -28 -68 -23 -161
14 -497 1 -497 -19 0 -7 32 -8 93 -4 104 8 282 10 294 4 4 -3 25 -4 45 -4 21
1 38 -1 38 -4 0 -3 26 -7 58 -8 100 -4 112 -5 112 -15 0 -5 9 -7 20 -4 10 3
25 -1 31 -9 8 -10 15 -11 25 -4 9 8 15 7 21 -4 5 -8 23 -16 41 -18 17 -1 32
-6 32 -10 0 -4 7 -8 15 -8 8 0 48 -16 89 -35 41 -19 82 -35 90 -35 8 0 16 -4
18 -8 6 -14 68 -53 87 -55 12 -1 17 -6 13 -16 -3 -9 -1 -12 6 -7 6 3 14 1 17
-5 4 -5 14 -8 23 -4 9 3 13 3 10 -1 -8 -8 5 -21 52 -54 19 -13 59 -43 88 -67
30 -24 59 -40 64 -36 7 3 8 1 4 -5 -6 -10 31 -38 46 -34 4 1 5 -5 2 -12 -3 -9
3 -17 15 -21 12 -3 19 -10 16 -15 -7 -11 22 -33 35 -25 5 3 10 -1 10 -10 0
-19 49 -67 61 -59 8 5 14 -17 10 -38 0 -5 5 -8 13 -8 8 0 16 -4 18 -8 4 -11
140 -97 149 -95 4 2 11 -7 14 -18 4 -12 13 -18 20 -15 17 6 39 -19 30 -34 -3
-5 -16 -10 -29 -10 -12 0 -26 -3 -30 -7 -3 -4 -16 -8 -27 -10 -11 -2 -33 -10
-49 -18 -16 -8 -36 -15 -45 -15 -9 0 -18 -7 -21 -15 -4 -8 -12 -15 -18 -15
-19 0 -76 -60 -76 -80 0 -10 -7 -21 -16 -24 -8 -3 -12 -10 -9 -16 3 -5 1 -10
-5 -10 -7 0 -8 -6 -1 -19 9 -16 8 -18 -9 -14 -15 4 -19 1 -15 -10 4 -8 0 -21
-7 -28 -14 -15 -51 -120 -54 -153 -1 -17 0 -17 10 -5 7 8 18 20 26 28 11 10
12 12 1 6 -9 -5 -12 -3 -9 6 3 8 11 13 18 11 6 -1 25 9 42 23 16 14 34 25 39
25 6 0 7 5 4 10 -3 6 4 10 17 10 13 0 29 5 36 12 6 6 17 13 24 15 7 1 31 7 53
12 77 19 347 13 368 -8 8 -8 6 -11 -6 -11 -15 0 -22 -17 -18 -42 0 -5 -4 -8
-9 -8 -12 0 -9 -38 4 -59 6 -10 5 -12 -2 -7 -7 4 -12 1 -12 -8 0 -9 -4 -16 -9
-16 -5 0 -11 -9 -14 -20 -3 -11 -2 -18 1 -16 4 2 12 -2 19 -9 9 -10 8 -14 -8
-18 -14 -4 -19 -14 -19 -41 0 -20 5 -36 11 -36 5 0 7 -5 4 -10 -4 -6 -10 -8
-14 -6 -4 3 -7 -40 -8 -95 -1 -54 2 -99 6 -99 4 0 8 -7 8 -15 0 -8 -4 -15 -9
-15 -5 0 -6 -6 -1 -12 4 -7 6 -21 4 -32 -4 -29 9 -87 19 -81 5 3 9 13 9 23 1
29 7 57 15 70 4 6 5 12 2 12 -3 0 2 8 12 18 9 10 24 29 32 41 8 12 41 39 72
60 32 21 54 41 51 45 -3 3 0 6 8 6 8 0 31 18 52 40 20 22 43 40 50 40 7 0 21
-12 32 -27 11 -15 35 -42 53 -60 17 -18 32 -40 32 -49 0 -11 5 -14 17 -10 10
4 14 4 10 0 -4 -4 0 -16 10 -26 9 -10 13 -18 10 -18 -6 0 11 -23 38 -54 6 -6
17 -26 24 -43 7 -18 20 -33 28 -33 8 0 12 -4 9 -9 -3 -5 10 -37 29 -71 19 -34
35 -65 35 -68 0 -4 11 -20 24 -35 14 -16 23 -34 20 -42 -3 -7 2 -15 11 -19 9
-3 13 -11 10 -17 -8 -13 14 -69 27 -69 5 0 6 -9 3 -20 -4 -12 0 -31 8 -43 12
-20 28 -65 32 -92 1 -5 7 -23 13 -38 7 -16 12 -37 12 -47 0 -10 5 -22 11 -25
6 -4 9 -21 8 -39 -2 -17 2 -40 8 -51 14 -27 24 -79 29 -150 2 -33 10 -81 17
-106 9 -30 11 -52 5 -63 -6 -11 -5 -16 3 -16 7 0 9 -3 6 -7 -4 -3 -2 -12 4
-19 6 -8 7 -14 0 -18 -11 -7 -3 -37 13 -48 7 -5 7 -8 -1 -8 -7 0 -13 -11 -13
-25 0 -14 5 -25 10 -25 9 0 9 -59 0 -95 -1 -5 -1 -14 0 -20 7 -26 4 -85 -4
-85 -5 0 -3 -7 4 -15 7 -8 8 -15 4 -15 -5 0 -10 -13 -10 -30 -1 -16 2 -30 8
-30 5 0 4 -9 -2 -20 -8 -15 -8 -20 2 -20 9 0 9 -3 2 -8 -13 -9 -16 -102 -2
-102 5 0 7 4 4 9 -3 5 0 14 7 19 8 7 13 33 12 64 0 29 4 56 9 59 5 4 5 15 1
25 -13 31 -14 44 -3 44 7 0 9 16 5 43 -3 23 -2 49 3 57 8 12 10 11 11 -5 2
-46 10 -111 16 -125 3 -8 5 -51 5 -95 0 -51 4 -83 11 -87 9 -6 9 -8 0 -8 -9 0
-12 -18 -12 -57 0 -32 -2 -88 -6 -124 -6 -57 -4 -67 10 -73 14 -5 15 -9 6 -20
-9 -11 -9 -15 1 -18 10 -4 10 -8 1 -20 -9 -10 -9 -18 -2 -25 8 -8 8 -13 0 -17
-16 -10 -14 -116 2 -116 9 0 9 -2 -1 -9 -7 -4 -15 -28 -18 -52 -3 -24 -7 -55
-9 -69 -6 -46 -35 -145 -51 -172 -8 -15 -15 -31 -15 -35 -1 -13 -50 -107 -65
-124 -8 -8 -14 -21 -14 -27 0 -7 -4 -12 -8 -12 -5 0 -14 -11 -20 -25 -18 -39
-85 -105 -107 -105 -12 0 -16 3 -9 8 13 8 17 72 4 72 -4 0 -7 8 -5 18 3 22
-13 54 -25 47 -5 -3 -3 -22 4 -43 9 -25 10 -45 4 -61 -5 -14 -7 -30 -4 -37 3
-7 0 -15 -7 -18 -9 -3 -9 -5 0 -5 7 -1 -2 -16 -18 -33 -24 -27 -27 -34 -13
-36 8 -2 26 6 38 17 12 12 26 21 30 21 23 0 148 127 201 205 51 75 108 185
100 193 -3 3 -1 10 4 16 8 11 19 51 42 156 12 55 16 201 6 251 -3 15 -8 52
-12 83 -4 31 -12 59 -17 62 -5 4 -5 10 0 17 19 24 31 274 17 372 -20 142 -35
229 -42 234 -4 3 -9 22 -9 41 -2 31 -8 64 -15 80 -1 3 -3 10 -4 15 -13 73 -18
95 -27 123 -5 17 -14 32 -20 32 -7 0 -6 5 1 14 9 11 9 27 -2 69 -18 68 -11 82
28 61 42 -22 142 -22 184 0 43 23 121 103 121 126 0 5 5 10 11 10 5 0 7 5 4
10 -3 6 1 13 9 16 9 3 16 16 16 28 0 12 7 31 15 42 8 12 11 24 8 28 -3 3 -1 6
6 6 7 0 10 4 6 9 -3 5 0 13 6 17 8 4 7 9 -2 15 -11 7 -11 9 -1 9 9 0 11 7 7
20 -4 12 -2 20 5 20 6 0 10 8 8 18 -1 9 1 23 5 30 5 8 2 12 -9 12 -10 0 -14
-3 -11 -7 4 -3 2 -12 -5 -20 -6 -7 -8 -16 -5 -19 3 -3 -3 -22 -14 -41 -11 -19
-17 -38 -14 -44 4 -5 2 -9 -3 -9 -5 0 -15 -15 -22 -32 -6 -18 -16 -41 -22 -51
-5 -11 -7 -21 -4 -24 2 -3 -9 -18 -25 -34 -16 -15 -29 -32 -29 -37 0 -5 -11
-17 -24 -28 -14 -10 -23 -21 -20 -26 3 -4 -1 -8 -8 -8 -7 0 -26 -7 -41 -15
-29 -15 -77 -14 -144 4 -45 12 -56 30 -73 116 -10 51 -65 221 -94 287 -15 35
-15 38 2 48 12 8 13 13 5 16 -7 3 -13 10 -13 16 0 12 -30 43 -31 31 -1 -14
-48 91 -49 108 0 9 7 30 16 48 10 21 14 44 10 65 -3 18 -3 35 0 39 11 10 14
116 3 122 -5 4 -9 14 -9 23 0 15 2 15 10 2 7 -11 10 -7 10 18 0 26 -4 32 -22
33 l-23 0 23 9 c25 11 29 35 7 56 -13 14 -15 13 -16 -3 0 -13 -2 -14 -6 -4 -3
8 5 22 18 32 l23 17 -17 73 c-17 70 -16 99 3 69 6 -8 10 -25 10 -37 0 -24 14
-31 25 -13 4 6 10 8 15 5 7 -5 20 42 26 95 1 14 3 25 4 25 1 0 3 7 5 15 2 8 7
25 11 38 4 13 2 22 -4 22 -6 0 -10 12 -8 28 3 35 -35 107 -71 135 -15 12 -41
35 -57 50 -17 15 -35 26 -41 23 -7 -2 -12 10 -13 33 -2 44 -5 62 -15 78 -6 9
-3 11 7 7 9 -3 16 -1 16 5 0 6 -5 11 -11 11 -7 0 -9 11 -6 26 3 16 0 28 -9 31
-8 3 -12 9 -9 14 13 20 -185 88 -261 89 -30 0 -32 -2 -32 -40 -1 -22 -3 -48
-6 -58 -3 -9 -8 -32 -11 -51 -3 -19 -9 -39 -13 -45 -3 -6 -7 -15 -8 -21 -8
-40 -89 -225 -99 -225 -9 0 -24 74 -16 84 15 20 41 121 43 166 3 90 -30 185
-99 288 -29 42 -42 52 -64 52 -15 0 -30 -4 -34 -10 -3 -5 6 -8 19 -7 14 1 26
-2 27 -8 0 -5 4 -14 9 -20 4 -5 17 -39 28 -75 11 -36 24 -74 28 -85 3 -11 -6
-3 -21 18 -17 22 -49 47 -79 61 -58 27 -133 41 -138 26 -2 -6 -30 -12 -63 -15
-76 -6 -160 -22 -185 -35 -14 -7 -22 -6 -33 5 -8 8 -18 11 -22 7 -5 -4 -5 -2
-2 4 8 13 -16 37 -27 27 -14 -14 1 37 16 54 21 24 111 193 102 193 -3 0 -1 7
6 16 8 8 17 36 22 62 10 58 12 64 21 80 5 7 3 12 -5 12 -10 0 -10 2 0 8 7 5
14 23 16 40 3 17 8 41 11 53 22 69 35 359 22 486 -10 94 -31 203 -39 203 -4 0
-8 9 -8 20 0 11 -4 20 -10 20 -5 0 -7 6 -4 14 3 7 -1 20 -9 27 -7 8 -12 20 -9
27 2 6 -1 12 -7 12 -6 0 -11 5 -11 11 0 16 -32 83 -44 91 -6 4 -7 8 -2 8 4 0
-3 15 -18 34 -14 19 -26 39 -26 44 0 13 -44 62 -56 62 -5 0 -10 8 -11 18 -2
25 -13 333 -13 360 0 12 -4 22 -9 22 -5 0 -7 18 -4 40 4 24 1 46 -7 54 -7 9
-10 30 -7 51 3 23 0 41 -9 50 -8 7 -14 20 -14 28 0 8 -7 28 -16 45 -8 18 -13
36 -10 41 4 5 2 12 -4 16 -5 3 -10 17 -10 31 0 14 -7 27 -15 30 -8 4 -12 10
-9 15 3 5 1 9 -5 9 -6 0 -13 11 -17 25 -3 13 -13 30 -21 37 -14 11 -15 8 -8
-22 4 -19 19 -62 32 -95 24 -56 56 -173 67 -240 14 -91 17 -114 21 -159 2 -27
9 -53 17 -57 11 -7 11 -9 0 -9 -21 0 -5 -244 18 -282 9 -15 20 -25 24 -21 4 4
4 0 1 -8 -3 -9 3 -23 15 -34 11 -10 20 -22 20 -27 0 -5 10 -24 23 -41 12 -18
23 -39 25 -47 2 -8 9 -22 16 -30 10 -12 69 -159 71 -180 1 -3 5 -21 10 -40 5
-19 10 -43 11 -52 1 -10 2 -19 4 -20 11 -14 22 -415 11 -433 -6 -12 -6 -10
-15 -100 -4 -38 -12 -75 -18 -82 -6 -7 -8 -13 -5 -13 5 0 -26 -120 -39 -150
-4 -8 -8 -19 -8 -25 -1 -5 -19 -46 -40 -90 -22 -44 -41 -86 -42 -93 -5 -26
-26 -43 -40 -31 -7 6 -19 7 -25 3 -7 -4 -9 -3 -5 4 9 14 -23 44 -41 38 -8 -3
-12 -2 -8 3 7 12 -15 34 -86 82 -32 22 -59 44 -59 49 0 6 -6 10 -13 10 -7 0
-32 14 -55 31 -24 18 -49 28 -58 25 -10 -4 -13 -2 -8 6 5 7 2 9 -9 5 -10 -4
-14 -2 -11 6 5 14 -54 40 -69 30 -6 -3 -7 -2 -4 4 4 5 -4 15 -16 20 -88 42
-152 64 -168 60 -16 -4 -18 -2 -9 7 13 16 -8 36 -39 39 -12 1 -21 5 -21 10 0
5 -7 7 -15 3 -8 -3 -15 -1 -15 4 0 10 -77 35 -97 31 -7 -1 -13 6 -13 15 0 13
-3 14 -15 4 -12 -10 -15 -10 -15 0 0 7 -8 10 -20 7 -11 -3 -18 -2 -15 3 3 4
-5 10 -18 13 -140 32 -228 50 -257 52 -19 2 -35 4 -35 5 0 1 -18 4 -40 6 -46
6 -53 10 -37 26 7 7 12 21 12 33 0 12 7 30 15 41 8 10 15 27 15 37 0 9 5 17
10 17 6 0 10 5 10 11 0 5 -4 7 -10 4 -6 -3 -7 1 -4 9 3 9 10 16 14 16 8 0 20
42 26 88 1 13 8 29 14 37 10 12 10 15 -1 15 -11 0 -11 2 -1 8 7 5 10 22 8 40
-2 18 1 32 6 32 6 0 7 11 4 25 -4 14 -2 25 4 25 5 0 10 7 10 16 0 9 -5 12 -12
8 -10 -6 -10 -5 -1 7 6 8 10 24 9 34 -2 11 1 26 7 33 6 8 5 12 -4 12 -10 0
-11 2 -2 8 7 4 11 21 9 37 -2 17 1 33 7 36 7 5 7 20 0 47 -9 33 -8 42 4 46 8
3 11 11 7 18 -10 16 -13 108 -3 108 12 0 7 164 -6 172 -7 5 -6 8 2 8 12 0 12
37 0 57 -4 6 -1 14 5 17 10 5 10 7 0 12 -10 5 -10 9 0 22 11 12 11 16 0 20 -8
2 -11 14 -6 37 3 19 1 35 -5 39 -6 4 -11 12 -11 17 0 6 5 7 10 4 6 -3 10 1 10
10 0 10 -5 13 -12 9 -9 -5 -9 -2 1 9 9 11 10 21 4 30 -14 17 -23 58 -12 51 5
-3 9 4 9 15 0 12 -5 21 -11 21 -8 0 -10 14 -6 40 3 22 1 40 -4 40 -6 0 -8 18
-5 40 3 22 2 40 -2 40 -4 0 -8 24 -10 53 -2 28 -5 63 -7 77 -2 14 -4 33 -4 43
-1 10 -4 16 -9 14 -4 -3 -7 9 -7 26 0 26 -5 33 -22 35 -22 3 -30 -8 -16 -21 3
-4 7 -26 9 -49 3 -53 14 -174 19 -208 5 -39 15 -113 19 -135 2 -11 -2 -23 -8
-27 -8 -6 -8 -10 1 -16 8 -5 10 -28 7 -70 -2 -34 0 -62 5 -62 5 0 8 -39 7 -87
-2 -49 1 -101 6 -118 5 -19 4 -31 -2 -33 -6 -2 -7 -9 -3 -15 8 -13 11 -197 3
-197 -3 0 -6 -33 -8 -73 -2 -39 -6 -101 -9 -137 -3 -36 -6 -84 -6 -107 -1 -24
-6 -43 -10 -43 -5 0 -7 -8 -6 -17 1 -10 -2 -26 -6 -37 -5 -12 -3 -21 6 -27 10
-6 10 -9 2 -9 -7 0 -13 -11 -13 -25 0 -14 -5 -25 -11 -25 -6 0 -9 -9 -6 -20 3
-11 0 -20 -6 -20 -6 0 -8 -3 -5 -6 4 -3 0 -20 -7 -39 -8 -18 -15 -49 -17 -69
-1 -20 -5 -36 -9 -36 -4 0 -10 -18 -14 -39 -4 -22 -12 -45 -19 -50 -17 -14
-75 -21 -82 -10 -2 4 -16 4 -29 -1 -13 -5 -27 -6 -29 -1 -9 14 -307 -8 -356
-26 -8 -3 -22 -7 -30 -8 -13 -2 -97 -17 -110 -20 -57 -13 -69 -18 -64 -26 3
-5 1 -9 -5 -9 -5 0 -21 33 -36 73 -15 39 -36 95 -47 124 -11 29 -20 56 -20 60
0 4 -4 14 -10 21 -6 6 -8 12 -4 12 4 0 -5 21 -19 47 -14 27 -25 55 -25 63 0 9
-5 21 -12 28 -7 7 -9 12 -4 12 4 0 1 12 -7 28 -20 36 -52 125 -49 135 1 4 -3
7 -8 7 -6 0 -10 11 -10 23 0 13 -3 27 -7 31 -5 4 -8 11 -9 14 0 9 -52 172 -61
192 -7 17 -4 8 -38 130 -14 52 -31 113 -38 135 -6 22 -11 42 -12 45 0 3 -4 11
-8 18 -5 6 -5 17 -2 22 3 6 1 10 -5 10 -7 0 -10 6 -7 14 3 7 -3 44 -13 82 -10
38 -21 88 -25 111 -4 24 -11 45 -16 49 -5 3 -7 9 -4 14 3 5 1 37 -5 72 -6 35
-13 74 -16 88 -2 14 -6 32 -7 40 -3 13 -8 43 -21 130 -10 67 -19 90 -37 90
-15 0 -17 -6 -13 -42z m1784 -1929 c0 -14 -17 -10 -23 5 -4 10 -1 13 9 9 7 -3
14 -9 14 -14z m45 -9 c8 -13 -5 -13 -25 0 -13 8 -13 10 2 10 9 0 20 -4 23 -10z
m55 -6 c0 -8 -4 -12 -10 -9 -5 3 -10 10 -10 16 0 5 5 9 10 9 6 0 10 -7 10 -16z
m55 -24 c3 -5 -1 -10 -10 -10 -9 0 -13 5 -10 10 3 6 8 10 10 10 2 0 7 -4 10
-10z m49 1 c3 -5 -3 -11 -15 -14 -16 -4 -18 -3 -8 9 13 16 16 17 23 5z m1086
-512 c43 -9 64 -25 129 -96 12 -13 21 -26 21 -31 0 -4 11 -23 24 -43 20 -29
23 -44 19 -78 l-6 -43 -12 30 c-23 53 -116 119 -187 132 -50 10 -41 -1 38 -45
64 -35 100 -62 93 -69 -2 -2 -31 4 -64 15 -44 13 -62 15 -72 7 -11 -9 -12 -13
-1 -19 9 -6 9 -9 1 -9 -6 0 -18 -3 -27 -6 -11 -4 -16 0 -16 12 0 21 -28 54
-45 54 -7 0 -15 7 -19 15 -3 8 -12 15 -21 15 -8 0 -15 4 -15 8 0 5 -33 25 -73
46 -111 56 -99 76 58 103 17 3 32 7 34 9 7 7 97 3 141 -7z m509 -53 c89 -23
175 -71 152 -85 -12 -8 -5 -84 9 -111 5 -10 7 -20 4 -23 -8 -7 5 -47 14 -44 4
1 26 -19 50 -45 29 -32 49 -45 59 -41 10 4 14 2 10 -4 -4 -6 1 -26 11 -44 9
-19 17 -56 17 -85 l0 -52 -27 23 c-55 46 -89 50 -239 28 -24 -3 -41 0 -50 9
-8 8 -20 13 -27 10 -6 -2 -12 2 -12 10 0 23 -60 53 -144 72 -26 7 -27 8 -12
25 9 10 13 21 9 24 -3 4 0 7 8 8 14 0 93 92 118 137 l13 25 -28 -21 c-16 -12
-42 -31 -57 -43 l-28 -21 7 28 c4 16 11 40 17 54 14 37 19 68 21 132 0 32 4
58 7 58 4 0 48 -11 98 -24z m-411 -233 c13 -10 33 -33 44 -51 l20 -33 -28 7
c-115 25 -173 23 -251 -12 -41 -19 -42 -28 -3 -19 96 21 269 6 301 -26 19 -19
18 -20 -1 -39 -11 -11 -24 -20 -29 -20 -17 0 -23 -21 -10 -36 10 -13 10 -17
-1 -24 -8 -5 -21 -5 -29 0 -17 8 -141 28 -176 27 -11 0 -24 1 -30 3 -16 5
-126 -10 -183 -26 -34 -10 -50 -19 -46 -26 5 -8 1 -9 -10 -5 -10 4 -26 2 -37
-3 -15 -8 -19 -7 -19 5 0 8 5 15 10 15 6 0 10 7 10 17 0 34 120 173 144 165 4
-2 16 3 25 11 9 8 63 29 121 47 58 18 106 37 108 41 5 12 44 1 70 -18z m257
-203 c10 -11 24 -20 32 -20 7 0 13 -4 13 -9 0 -5 7 -12 16 -15 12 -5 15 -2 10
9 -3 9 -2 13 4 10 6 -3 10 -12 10 -20 0 -7 7 -15 15 -19 18 -7 20 -47 3 -64
-7 -7 -8 -12 -3 -12 4 0 0 -9 -10 -20 -10 -11 -15 -20 -11 -20 13 0 -43 -97
-90 -156 -26 -32 -68 -77 -94 -99 -27 -21 -46 -45 -43 -52 3 -9 -4 -13 -20
-13 -15 0 -37 -11 -51 -25 -25 -25 -42 -34 -31 -15 3 6 8 56 11 113 2 56 9
127 15 157 6 30 12 64 13 75 4 46 31 109 59 142 11 12 17 29 14 37 -13 35 108
49 138 16z m428 -94 c20 -16 35 -32 32 -36 -3 -5 0 -10 6 -12 7 -2 10 -10 8
-17 -3 -9 -11 -7 -27 7 -12 11 -36 25 -52 32 -17 7 -30 16 -30 20 0 4 -20 13
-45 19 -62 16 -56 24 13 19 44 -3 67 -11 95 -32z m-149 -14 c59 -21 81 -56 97
-153 19 -116 12 -430 -10 -452 -9 -9 -51 51 -51 72 0 7 -4 10 -8 7 -5 -3 -17
9 -27 27 -11 18 -38 56 -62 85 -24 29 -44 58 -44 65 -1 7 -2 26 -4 42 -3 38
-24 104 -41 129 -8 12 -10 24 -4 31 7 9 30 119 30 148 0 21 19 2 39 -40 16
-33 26 -78 32 -143 4 -52 10 -104 13 -115 2 -11 5 -31 6 -45 1 -38 18 -4 25
51 16 128 10 201 -22 248 -10 14 -18 30 -18 34 0 4 -7 12 -15 17 -26 16 9 12
64 -8z m-159 -290 c-3 -3 -17 6 -31 20 -23 22 -24 28 -13 46 13 20 14 20 32
-19 10 -23 16 -44 12 -47z m295 -87 c0 -8 -2 -15 -4 -15 -2 0 -6 7 -10 15 -3
8 -1 15 4 15 6 0 10 -7 10 -15z m247 -1470 c0 -8 -4 -12 -9 -9 -5 3 -6 10 -3
15 9 13 12 11 12 -6z"/>
<path d="M7939 7121 c-15 -15 -56 -45 -93 -67 -36 -21 -66 -43 -66 -47 0 -19
99 13 128 40 7 7 17 13 22 13 10 0 41 47 45 71 5 26 -5 23 -36 -10z"/>
<path d="M7586 6918 c-41 -82 -33 -101 15 -35 22 32 38 61 35 66 -4 5 0 12 6
14 7 3 3 6 -9 6 -16 1 -27 -12 -47 -51z"/>
<path d="M2835 9960 c-8 -13 15 -24 27 -12 6 6 4 11 -6 15 -8 3 -18 2 -21 -3z"/>
<path d="M2866 9938 c-8 -18 -16 -27 -16 -19 0 8 -3 11 -6 8 -4 -4 -1 -14 7
-23 12 -16 12 -17 -7 -12 -13 3 -21 0 -21 -8 0 -8 5 -14 11 -14 6 0 0 -7 -12
-16 -12 -8 -22 -26 -22 -39 0 -13 -5 -36 -11 -52 -6 -15 -12 -35 -13 -43 -3
-22 -18 -74 -24 -85 -4 -5 -7 -16 -8 -25 -2 -8 -10 -49 -19 -90 -9 -41 -18
-86 -20 -100 -7 -46 -18 -135 -20 -170 -2 -19 -5 -50 -8 -67 -4 -20 -2 -33 5
-33 7 0 7 -4 0 -13 -14 -17 -7 -264 12 -410 3 -18 5 -32 6 -32 0 0 2 -27 4
-59 2 -34 8 -62 14 -64 7 -2 12 -8 12 -13 0 -6 -5 -7 -11 -3 -8 4 -9 -1 -3
-17 9 -26 9 -45 1 -129 -3 -34 -1 -60 6 -69 10 -12 9 -13 -2 -6 -12 7 -13 -13
-8 -126 5 -129 26 -229 48 -229 4 0 6 -6 3 -13 -3 -8 8 -28 25 -45 16 -18 26
-32 23 -32 -3 0 11 -16 32 -35 21 -19 42 -33 46 -30 4 3 11 -2 14 -11 4 -10
14 -14 26 -11 11 3 27 -1 34 -9 20 -19 27 -18 19 4 -5 14 -3 15 8 5 16 -15 59
-17 59 -3 0 6 -9 10 -20 10 -11 0 -20 6 -20 14 0 8 -15 17 -37 21 -58 11 -108
45 -145 100 -59 88 -70 151 -68 375 4 307 2 340 -15 410 -7 28 -9 46 -21 170
-4 47 -7 108 -7 135 2 114 7 192 14 225 4 19 10 49 13 65 3 17 12 73 21 125 9
52 20 109 25 125 5 17 12 45 15 63 3 18 12 60 19 92 13 54 13 61 -2 70 -15 9
-15 10 3 8 12 -2 21 4 23 16 3 14 0 17 -12 13 -9 -4 -16 -2 -16 3 0 6 6 10 14
10 15 0 48 60 53 98 5 31 -2 28 -21 -10z"/>
<path d="M3721 9853 c-1 -12 4 -25 9 -28 12 -7 12 2 0 30 -8 19 -9 19 -9 -2z"/>
<path d="M3735 9760 c3 -5 8 -10 11 -10 2 0 4 5 4 10 0 6 -5 10 -11 10 -5 0
-7 -4 -4 -10z"/>
<path d="M3730 9725 c0 -8 2 -15 4 -15 2 0 6 7 10 15 3 8 1 15 -4 15 -6 0 -10
-7 -10 -15z"/>
<path d="M3735 9690 c-3 -5 -2 -10 4 -10 5 0 13 5 16 10 3 6 2 10 -4 10 -5 0
-13 -4 -16 -10z"/>
<path d="M3758 9553 c7 -3 16 -2 19 1 4 3 -2 6 -13 5 -11 0 -14 -3 -6 -6z"/>
<path d="M3770 9509 c0 -5 -4 -7 -10 -4 -5 3 -10 1 -10 -4 0 -6 7 -11 15 -11
8 0 15 7 15 15 0 8 -2 15 -5 15 -3 0 -5 -5 -5 -11z"/>
<path d="M3760 9401 c0 -29 15 -33 16 -5 1 13 -2 24 -7 24 -5 0 -9 -9 -9 -19z"/>
<path d="M3777 9354 c-7 -8 3 -34 13 -34 5 0 8 9 7 20 -1 20 -8 25 -20 14z"/>
<path d="M3775 9300 c-8 -13 -1 -24 14 -19 6 3 7 10 2 18 -6 10 -10 10 -16 1z"/>
<path d="M3790 9220 c-9 -6 -10 -10 -3 -10 6 0 15 5 18 10 8 12 4 12 -15 0z"/>
<path d="M3780 9191 c0 -5 7 -12 16 -15 14 -5 15 -4 4 9 -14 17 -20 19 -20 6z"/>
<path d="M3797 9136 c-4 -10 -1 -13 9 -9 15 6 19 23 5 23 -5 0 -11 -7 -14 -14z"/>
<path d="M3801 9107 c-8 -10 -7 -14 2 -14 8 0 14 6 14 14 0 7 -1 13 -2 13 -2
0 -8 -6 -14 -13z"/>
<path d="M3808 9073 c7 -3 16 -2 19 1 4 3 -2 6 -13 5 -11 0 -14 -3 -6 -6z"/>
<path d="M3790 9021 c0 -5 6 -11 13 -14 8 -3 14 1 14 9 0 8 -6 14 -14 14 -7 0
-13 -4 -13 -9z"/>
<path d="M3805 8979 c-11 -17 -2 -18 19 -3 17 12 17 14 4 14 -9 0 -20 -5 -23
-11z"/>
<path d="M3800 8939 c0 -5 5 -7 10 -4 6 3 10 8 10 11 0 2 -4 4 -10 4 -5 0 -10
-5 -10 -11z"/>
<path d="M3800 8916 c0 -9 30 -14 35 -6 4 6 -3 10 -14 10 -12 0 -21 -2 -21 -4z"/>
<path d="M3805 8890 c-3 -5 -2 -10 4 -10 6 0 8 -7 5 -15 -4 -10 0 -15 12 -14
11 0 14 3 7 5 -7 3 -10 11 -7 19 6 16 -12 29 -21 15z"/>
<path d="M3815 8802 c-10 -10 -5 -23 6 -17 6 4 9 0 7 -10 -2 -10 2 -20 7 -21
6 -2 10 9 11 24 1 26 -16 39 -31 24z"/>
<path d="M3830 8725 c7 -8 17 -15 22 -15 5 0 3 7 -6 15 -8 8 -18 15 -22 15 -3
0 -1 -7 6 -15z"/>
<path d="M3835 8655 c0 -24 3 -41 8 -38 4 2 7 -3 7 -11 0 -9 -5 -16 -10 -16
-7 0 -7 -6 -1 -19 6 -10 7 -21 4 -25 -3 -3 1 -6 11 -6 12 0 15 4 8 18 -4 9 -7
43 -6 74 1 34 -3 59 -10 61 -7 3 -11 -11 -11 -38z"/>
<path d="M3730 8518 c-52 -29 -108 -87 -115 -120 -4 -15 -10 -26 -14 -23 -5 2
-7 -9 -5 -25 2 -17 0 -30 -5 -30 -5 0 -7 -17 -5 -37 4 -56 9 -72 24 -86 8 -8
11 -8 6 0 -3 6 0 14 6 16 10 4 10 6 1 6 -7 1 -10 8 -6 18 4 11 3 14 -5 9 -9
-5 -11 4 -8 34 2 22 6 43 10 47 3 3 6 17 6 30 0 13 5 23 10 23 6 0 10 6 10 13
0 15 84 107 97 107 12 0 38 28 32 34 -2 2 -20 -5 -39 -16z"/>
<path d="M3847 8473 c3 -7 13 -13 22 -13 13 0 13 2 2 9 -11 7 -11 9 0 14 8 3
4 4 -7 4 -14 -1 -20 -6 -17 -14z"/>
<path d="M3857 8430 c-3 -10 1 -24 8 -30 8 -6 11 -19 9 -28 -4 -13 -2 -12 7 2
10 16 9 21 -7 33 -10 7 -12 13 -5 13 7 0 10 4 7 9 -4 5 0 12 6 14 8 4 7 6 -3
6 -9 1 -19 -8 -22 -19z"/>
<path d="M3520 8288 c-27 -29 -45 -55 -39 -57 7 -2 16 4 21 12 4 9 14 22 21
29 47 52 60 68 54 68 -3 0 -29 -24 -57 -52z"/>
<path d="M3884 8289 c-3 -6 0 -16 7 -21 11 -7 11 -11 2 -15 -10 -4 -10 -9 -1
-26 12 -22 14 -28 17 -47 0 -5 8 -7 16 -4 8 4 12 10 9 15 -3 5 -11 6 -17 2 -7
-4 -6 0 2 10 11 14 11 17 -1 17 -10 0 -13 11 -10 40 4 38 -8 53 -24 29z"/>
<path d="M3452 8193 c-12 -15 -23 -35 -23 -45 -1 -10 -2 -24 -3 -30 -1 -7 -6
-16 -13 -21 -7 -4 -10 -14 -7 -21 3 -8 0 -17 -6 -21 -9 -6 -9 -9 1 -15 10 -7
10 -11 0 -24 -10 -12 -11 -16 -1 -16 8 0 11 -11 8 -30 -3 -17 -1 -33 4 -36 4
-3 9 7 9 23 1 15 2 48 3 73 1 25 10 63 19 84 10 22 20 50 23 63 4 13 10 23 15
23 5 0 9 5 9 10 0 18 -16 11 -38 -17z"/>
<path d="M3627 8176 c-9 -24 -9 -28 3 -21 6 3 10 -2 11 -12 0 -11 3 -13 6 -5
2 6 10 10 16 6 7 -3 5 0 -4 8 -9 7 -18 20 -21 27 -3 12 -6 11 -11 -3z"/>
<path d="M3915 8140 c-3 -5 1 -10 10 -10 9 0 13 5 10 10 -3 6 -8 10 -10 10 -2
0 -7 -4 -10 -10z"/>
<path d="M3676 8122 c-2 -4 6 -12 20 -19 21 -10 23 -9 13 8 -10 20 -24 25 -33
11z"/>
<path d="M3930 8102 c0 -5 7 -9 15 -9 8 0 12 4 9 9 -3 4 -9 8 -15 8 -5 0 -9
-4 -9 -8z"/>
<path d="M3950 8060 c0 -5 5 -10 11 -10 5 0 7 5 4 10 -3 6 -8 10 -11 10 -2 0
-4 -4 -4 -10z"/>
<path d="M3967 7985 c-4 -8 -2 -17 3 -20 6 -4 10 -4 10 -1 0 2 3 11 6 20 3 9
2 16 -4 16 -5 0 -12 -7 -15 -15z"/>
<path d="M3992 7936 c7 -8 15 -12 17 -11 5 6 -10 25 -20 25 -5 0 -4 -6 3 -14z"/>
<path d="M3410 7895 c7 -8 9 -15 6 -15 -4 0 0 -7 8 -16 11 -10 13 -21 7 -32
-10 -20 -5 -40 17 -64 8 -10 12 -18 8 -18 -5 0 1 -15 12 -34 18 -31 19 -36 5
-56 -21 -30 -9 -36 23 -11 24 19 51 20 39 1 -3 -4 16 -20 41 -34 49 -28 69
-33 59 -15 -4 6 -10 8 -13 5 -3 -3 -19 9 -35 27 -17 17 -26 25 -22 17 4 -8 -2
-5 -14 7 -11 12 -21 27 -21 34 0 6 -6 17 -14 23 -15 12 -66 101 -66 116 0 5
-5 21 -12 37 -6 15 -11 31 -10 36 1 4 -5 7 -14 7 -14 0 -14 -3 -4 -15z"/>
<path d="M4020 7861 c10 -7 11 -11 3 -11 -7 0 -13 -4 -13 -10 0 -5 6 -10 14
-10 18 0 14 33 -5 38 -11 3 -11 1 1 -7z"/>
<path d="M4037 7809 c7 -7 15 -10 18 -7 3 3 -2 9 -12 12 -14 6 -15 5 -6 -5z"/>
<path d="M3037 7761 c3 -12 9 -19 13 -16 4 2 6 -9 4 -26 -2 -18 0 -28 6 -24 5
3 7 0 4 -8 -3 -8 6 -38 20 -66 l26 -51 -62 -32 c-35 -18 -74 -37 -88 -42 -31
-12 -158 -92 -185 -118 -95 -90 -127 -118 -134 -118 -4 0 -13 -12 -19 -26 -7
-15 -17 -22 -24 -18 -7 4 -8 3 -4 -4 4 -7 3 -12 -3 -12 -5 0 -13 -9 -16 -20
-3 -11 -12 -20 -20 -20 -8 0 -17 -9 -20 -20 -3 -11 -14 -20 -22 -20 -9 0 -13
-3 -10 -7 10 -9 -14 -34 -26 -26 -6 4 -8 0 -4 -11 4 -11 3 -15 -4 -11 -6 4
-13 -2 -16 -14 -3 -12 -12 -21 -19 -21 -8 0 -14 -7 -14 -15 0 -8 -4 -15 -10
-15 -5 0 -10 -9 -10 -19 0 -11 -5 -23 -12 -27 -7 -5 -8 -3 -3 6 5 9 4 11 -4 6
-9 -6 -9 -11 1 -24 9 -11 9 -14 1 -9 -15 9 -56 -29 -48 -43 4 -6 1 -10 -5 -10
-6 0 -9 -4 -6 -9 3 -5 -1 -12 -10 -15 -8 -3 -13 -10 -10 -15 3 -5 -5 -19 -18
-32 -13 -13 -22 -29 -19 -36 3 -7 0 -13 -6 -13 -6 0 -11 -9 -11 -19 0 -10 -7
-22 -16 -25 -8 -3 -13 -10 -10 -15 3 -5 -1 -11 -9 -15 -8 -3 -12 -12 -9 -21 3
-8 1 -15 -6 -15 -6 0 -9 -4 -6 -9 4 -5 2 -11 -4 -13 -5 -1 -11 -13 -13 -26 -2
-13 -33 -53 -70 -91 -37 -37 -67 -73 -67 -79 0 -7 -5 -12 -12 -12 -8 0 -5 -7
5 -17 17 -17 19 -17 33 2 8 11 12 25 10 32 -3 7 2 10 13 8 12 -2 18 2 17 12 0
9 5 18 12 20 6 3 12 -2 12 -11 0 -9 4 -16 8 -16 15 0 30 22 25 36 -3 8 2 17
11 20 9 3 16 14 16 23 0 9 11 32 25 51 14 19 25 44 25 57 0 13 5 23 10 23 6 0
10 11 10 24 0 13 7 27 16 30 8 3 13 10 10 15 -3 4 3 16 14 26 11 10 20 23 20
30 0 7 10 23 23 37 13 14 29 39 36 55 7 17 24 36 37 42 14 6 23 15 20 20 -3 5
1 12 10 15 8 3 13 10 9 15 -3 5 4 12 15 16 11 4 17 11 14 17 -4 6 1 17 11 25
11 7 15 13 11 13 -9 0 61 67 77 74 9 3 8 5 0 5 -18 1 -16 21 2 21 8 0 15 7 15
16 0 8 5 12 10 9 6 -3 10 -2 10 2 0 5 18 22 40 39 22 16 40 35 40 43 0 7 6 11
13 8 7 -3 19 4 25 14 7 10 19 19 28 19 8 0 12 5 9 10 -3 6 1 10 9 10 9 0 16 5
16 10 0 6 7 10 15 10 8 0 15 6 15 13 0 7 8 17 19 22 10 6 43 26 72 46 63 41
196 109 215 109 7 0 19 -10 25 -22 14 -27 108 -140 126 -151 7 -5 19 -15 26
-23 29 -35 73 -74 84 -74 6 0 13 -4 15 -9 5 -15 130 -91 150 -91 10 0 18 -4
18 -9 0 -5 8 -7 19 -4 11 3 27 -4 39 -17 11 -12 25 -19 31 -16 5 4 12 2 15 -3
3 -5 15 -7 26 -4 11 3 20 1 20 -5 0 -12 49 -22 56 -11 4 8 -19 24 -41 29 -5 1
-21 6 -33 11 -13 5 -27 7 -32 4 -5 -3 -10 -1 -12 5 -2 6 -14 12 -28 15 -14 3
-26 9 -28 14 -2 5 -12 6 -24 3 -14 -3 -19 -1 -14 6 4 7 1 12 -8 12 -8 0 -22 7
-30 16 -9 8 -20 13 -25 10 -5 -4 -19 7 -31 24 -12 16 -27 30 -33 30 -20 0
-194 175 -216 217 -11 21 -21 31 -21 23 -1 -16 -30 34 -77 133 -15 31 -33 57
-39 57 -6 0 -10 10 -9 23 2 13 -3 31 -11 42 -8 10 -14 15 -14 11 0 -5 -6 -3
-14 3 -12 10 -13 8 -9 -8z"/>
<path d="M4062 7757 c-10 -12 -9 -16 3 -21 9 -3 13 -10 10 -16 -3 -5 -2 -10 4
-10 17 0 20 14 7 38 -11 20 -14 21 -24 9z"/>
<path d="M4085 7690 c3 -5 8 -10 11 -10 2 0 4 5 4 10 0 6 -5 10 -11 10 -5 0
-7 -4 -4 -10z"/>
<path d="M4110 7664 c0 -8 5 -12 10 -9 6 4 8 11 5 16 -9 14 -15 11 -15 -7z"/>
<path d="M7430 7639 c0 -5 26 -21 58 -35 31 -13 74 -33 95 -44 52 -27 81 -27
47 -1 -13 11 -28 17 -32 15 -4 -2 -10 2 -15 10 -5 8 -39 27 -76 41 -77 29 -77
29 -77 14z"/>
<path d="M3447 7613 c-11 -18 -18 -103 -10 -118 8 -14 11 -12 22 11 11 25 11
26 -5 13 -16 -13 -16 -12 -7 6 6 11 8 26 6 33 -3 6 -1 12 4 12 5 0 9 11 9 25
0 24 -10 33 -19 18z"/>
<path d="M7286 7564 c-5 -14 -4 -15 9 -4 17 14 19 20 6 20 -5 0 -12 -7 -15
-16z"/>
<path d="M4170 7555 c0 -8 4 -15 8 -15 5 0 9 7 9 15 0 8 -4 15 -9 15 -4 0 -8
-7 -8 -15z"/>
<path d="M7650 7521 c0 -5 7 -14 15 -21 16 -14 18 -10 9 14 -6 17 -24 22 -24
7z"/>
<path d="M4205 7510 c-3 -5 1 -10 10 -10 9 0 13 5 10 10 -3 6 -8 10 -10 10 -2
0 -7 -4 -10 -10z"/>
<path d="M3460 7479 c0 -5 5 -7 10 -4 6 3 10 8 10 11 0 2 -4 4 -10 4 -5 0 -10
-5 -10 -11z"/>
<path d="M4230 7479 c0 -5 5 -7 10 -4 6 3 10 8 10 11 0 2 -4 4 -10 4 -5 0 -10
-5 -10 -11z"/>
<path d="M3457 7439 c3 -11 10 -19 15 -19 5 0 6 6 2 13 -5 9 -4 9 6 0 7 -6 13
-23 13 -37 0 -21 4 -26 23 -26 13 0 24 -4 24 -10 0 -5 5 -10 10 -10 7 0 7 7 0
20 -6 11 -16 17 -22 14 -7 -4 -8 -3 -4 5 4 6 1 14 -8 17 -9 3 -12 12 -9 21 4
11 2 14 -5 9 -7 -4 -12 -3 -12 2 0 5 -8 12 -19 15 -14 3 -17 0 -14 -14z"/>
<path d="M4264 7439 c-8 -14 8 -30 22 -21 9 5 8 10 -2 19 -9 9 -15 10 -20 2z"/>
<path d="M4324 7375 c11 -8 24 -15 30 -15 5 0 1 7 -10 15 -10 8 -23 14 -29 14
-5 0 -1 -6 9 -14z"/>
<path d="M3550 7322 c0 -13 34 -42 49 -42 7 0 9 -4 6 -10 -3 -5 1 -10 10 -10
8 0 18 -7 21 -15 4 -8 10 -13 14 -10 5 3 12 -1 17 -9 8 -15 11 -16 39 -16 8 0
12 -4 9 -10 -3 -6 1 -7 9 -4 20 8 20 12 2 30 -16 16 -40 19 -31 4 3 -6 -1 -7
-9 -4 -9 3 -14 9 -12 13 3 4 0 13 -5 21 -8 13 -10 13 -19 0 -8 -12 -10 -11
-10 8 0 15 -6 22 -21 22 -13 0 -18 4 -13 13 5 7 0 6 -11 -3 -16 -14 -17 -13
-11 8 6 18 4 22 -13 22 -12 0 -21 -4 -21 -8z"/>
<path d="M3751 7196 c-13 -15 1 -32 18 -21 5 3 12 1 16 -5 4 -6 11 -8 16 -5 5
4 9 2 9 -3 0 -7 46 -26 93 -38 4 -1 8 -2 10 -4 2 -2 28 -8 62 -15 11 -2 31 -6
45 -10 24 -6 24 -6 6 9 -10 8 -38 18 -62 22 -24 3 -44 10 -44 14 0 4 -15 11
-32 15 -18 4 -35 8 -38 9 -20 5 -76 31 -81 38 -3 5 -11 2 -18 -6z"/>
<path d="M9223 7071 c-64 -54 -4 -143 73 -107 34 16 30 25 -12 23 -30 -2 -38
2 -45 20 -10 28 12 53 46 53 22 0 23 -3 15 -31 -8 -28 -7 -30 13 -27 52 7 14
88 -41 88 -15 -1 -37 -9 -49 -19z"/>
<path d="M3804 7073 c3 -4 17 -8 29 -10 17 -2 19 -1 7 7 -17 11 -47 14 -36 3z"/>
<path d="M2774 6928 l-19 -23 23 19 c21 18 27 26 19 26 -2 0 -12 -10 -23 -22z"/>
<path d="M2735 6890 c-3 -5 -2 -10 4 -10 5 0 13 5 16 10 3 6 2 10 -4 10 -5 0
-13 -4 -16 -10z"/>
<path d="M2702 6864 c-7 -8 -8 -14 -3 -14 10 0 25 19 20 25 -2 1 -10 -3 -17
-11z"/>
<path d="M8978 6873 c-10 -2 -18 -13 -18 -23 0 -23 -9 -29 -48 -32 -17 -1 -28
-6 -25 -11 3 -4 -3 -7 -13 -5 -11 2 -18 -2 -16 -9 1 -7 -3 -13 -9 -13 -5 0 -8
-4 -4 -9 3 -5 -4 -12 -15 -16 -20 -6 -28 -25 -11 -25 5 0 11 -7 14 -14 4 -10
1 -13 -9 -9 -27 10 -14 -14 35 -63 13 -13 30 -24 38 -24 8 0 28 -13 45 -29 47
-44 110 -50 146 -15 14 15 16 44 3 44 -6 0 -13 -5 -17 -12 -5 -7 -3 -8 6 -3 8
5 11 4 6 -3 -4 -6 -13 -9 -21 -5 -8 3 -15 1 -15 -4 0 -19 -35 -10 -70 16 -19
15 -47 32 -63 39 -39 17 -68 68 -55 97 12 27 50 49 85 50 17 0 27 6 29 18 1
10 8 24 14 32 16 19 56 3 52 -20 -3 -18 34 -65 51 -65 5 0 16 -8 23 -17 9 -13
16 -15 24 -7 9 9 5 18 -13 38 -13 14 -29 26 -36 26 -6 0 -11 3 -12 8 -2 18 -8
44 -11 45 -2 1 -13 8 -25 15 -23 12 -34 13 -65 5z"/>
<path d="M2630 6780 c0 -5 5 -10 10 -10 6 0 10 5 10 10 0 6 -4 10 -10 10 -5 0
-10 -4 -10 -10z"/>
<path d="M2570 6705 c-7 -9 -11 -17 -9 -20 3 -2 10 5 17 15 14 24 10 26 -8 5z"/>
<path d="M9100 6700 c-9 -16 -8 -20 5 -20 8 0 15 6 15 14 0 9 7 13 20 11 11
-2 20 0 20 6 0 18 -49 9 -60 -11z"/>
<path d="M9104 6655 c4 -24 16 -30 16 -7 0 12 -4 22 -9 22 -5 0 -8 -7 -7 -15z"/>
<path d="M2515 6620 c3 -5 8 -10 11 -10 2 0 4 5 4 10 0 6 -5 10 -11 10 -5 0
-7 -4 -4 -10z"/>
<path d="M2496 6583 c-6 -14 -5 -15 5 -6 7 7 10 15 7 18 -3 3 -9 -2 -12 -12z"/>
<path d="M2470 6545 c0 -8 2 -15 4 -15 2 0 6 7 10 15 3 8 1 15 -4 15 -6 0 -10
-7 -10 -15z"/>
<path d="M2133 6419 c-6 -6 -9 -18 -6 -25 8 -22 19 -16 19 11 0 14 0 25 -1 25
-1 0 -6 -5 -12 -11z"/>
<path d="M2015 6390 c-3 -5 -3 -10 2 -10 4 0 -3 -7 -15 -16 -12 -8 -22 -22
-22 -30 0 -8 -4 -12 -10 -9 -5 3 -10 0 -10 -8 0 -8 -7 -20 -15 -27 -8 -7 -12
-16 -9 -21 3 -5 -2 -9 -10 -9 -9 0 -16 -5 -16 -11 0 -5 4 -8 9 -4 5 3 12 1 16
-5 3 -5 -1 -10 -9 -10 -14 0 -20 -13 -19 -47 0 -6 -6 -9 -13 -6 -12 5 -19 -8
-15 -29 0 -5 -4 -8 -10 -8 -5 0 -8 -4 -5 -9 3 -5 -1 -14 -9 -21 -18 -15 -20
-34 -2 -25 6 4 4 0 -5 -8 -10 -8 -15 -17 -12 -20 7 -6 -15 -49 -30 -59 -7 -5
-6 -8 3 -8 11 0 10 -5 -4 -20 -10 -11 -14 -20 -9 -20 5 0 3 -4 -4 -9 -8 -4
-15 -21 -17 -37 -2 -16 -6 -40 -10 -54 -4 -14 -7 -33 -7 -42 1 -10 -4 -18 -10
-18 -5 0 -8 -6 -5 -14 3 -7 -1 -23 -10 -35 -8 -12 -12 -28 -10 -35 3 -8 3 -17
-1 -20 -6 -7 -11 -28 -15 -63 -1 -13 -5 -23 -8 -23 -10 0 -31 -58 -31 -85 0
-14 -4 -25 -9 -25 -5 0 -6 -7 -3 -15 4 -8 1 -15 -6 -15 -7 0 -10 -7 -6 -15 3
-8 -1 -20 -8 -27 -7 -7 -11 -19 -8 -26 2 -6 0 -12 -5 -12 -4 0 -9 -11 -9 -24
-1 -13 -11 -33 -23 -45 -11 -11 -18 -27 -15 -36 4 -8 0 -23 -7 -32 -8 -9 -14
-23 -15 -32 -2 -30 -44 -112 -91 -176 -18 -25 -46 -73 -64 -112 -11 -24 -27
-43 -36 -43 -13 0 -13 -3 -3 -15 12 -14 15 -14 30 0 11 10 16 24 12 37 -4 16
-2 19 8 13 9 -5 11 -4 6 3 -5 8 0 12 13 12 14 0 21 6 21 19 0 10 7 24 15 31 9
7 13 15 10 18 -3 3 4 11 15 19 11 8 20 21 20 29 0 8 4 14 8 14 9 0 41 51 39
62 -1 4 6 17 16 28 9 11 17 24 17 29 0 5 7 14 15 21 9 7 14 19 11 25 -2 7 0
17 6 23 6 6 6 12 -1 16 -6 4 -3 14 9 26 11 11 20 29 20 40 0 11 4 20 8 20 5 0
9 6 10 13 2 31 14 73 25 86 7 8 11 22 9 33 -2 10 1 18 7 18 7 0 33 92 32 115
0 2 7 24 15 47 9 24 17 50 19 58 2 8 11 42 19 75 9 32 16 69 16 82 0 12 8 27
18 32 16 10 15 10 -3 11 -18 0 -18 1 3 16 12 8 20 20 16 25 -3 5 0 16 6 24 7
8 10 15 6 15 -3 0 3 17 14 37 11 21 20 44 20 51 0 7 7 15 15 18 11 5 13 10 5
19 -8 9 -8 14 1 17 6 2 12 16 12 31 0 22 2 25 13 16 10 -8 12 -6 9 9 -2 11 2
23 10 26 7 2 16 18 20 35 4 19 11 29 18 24 6 -4 8 0 4 10 -3 10 -3 17 1 17 4
0 13 14 20 30 8 17 18 27 24 24 6 -4 5 2 -1 15 -13 24 -17 25 -26 11z"/>
<path d="M1465 6332 c-27 -23 -31 -59 -9 -83 23 -26 58 -24 71 4 20 41 22 55
7 76 -18 25 -42 26 -69 3z m45 -21 c7 -15 5 -25 -9 -43 l-19 -23 -7 28 c-5 17
-2 33 5 42 16 19 17 19 30 -4z"/>
<path d="M8150 6025 c-13 -15 -12 -19 6 -34 12 -9 34 -26 50 -38 15 -13 36
-23 46 -23 10 0 18 -4 18 -8 0 -14 94 -36 155 -35 57 1 145 28 145 45 0 5 6 8
13 8 7 0 33 21 57 46 47 49 42 49 -24 2 -92 -66 -229 -88 -311 -48 -22 11 -45
19 -51 20 -7 0 -14 7 -18 15 -3 8 -9 15 -13 14 -4 -1 -15 -1 -23 0 -13 1 -13
2 0 11 12 8 11 10 -7 10 -12 0 -23 7 -25 17 -3 15 -4 15 -18 -2z"/>
<path d="M8697 6019 c-9 -33 -9 -39 4 -39 5 0 8 4 5 9 -4 5 -2 11 3 13 4 1 5
12 1 22 -6 18 -7 18 -13 -5z"/>
<path d="M882 5987 c-26 -15 -50 -55 -46 -80 1 -9 -2 -17 -7 -17 -6 0 -8 -4
-4 -9 3 -6 -4 -15 -15 -21 -11 -6 -20 -15 -20 -21 0 -6 4 -8 9 -5 5 3 12 -1
15 -10 4 -10 1 -14 -12 -13 -9 2 -37 -7 -62 -19 -25 -12 -42 -21 -37 -22 4 0
-3 -10 -14 -21 -17 -17 -19 -23 -8 -30 10 -6 11 -9 2 -9 -7 0 -13 -5 -13 -11
0 -5 4 -8 9 -5 5 3 12 -1 15 -10 4 -10 2 -13 -7 -9 -6 4 -3 -1 8 -9 11 -9 27
-22 35 -29 8 -7 17 -13 20 -13 30 -5 51 -18 46 -30 -7 -17 10 -19 21 -1 4 6
16 12 26 12 34 0 21 20 -15 21 -45 2 -82 29 -99 72 -7 17 -18 32 -23 32 -6 0
0 7 14 15 25 14 33 18 77 35 18 8 72 102 73 128 0 4 8 17 18 30 18 24 92 41
92 22 0 -5 9 -10 19 -10 11 0 27 -12 36 -27 15 -26 65 -55 145 -84 19 -7 47
-26 62 -41 l26 -28 -23 -67 c-17 -49 -21 -71 -13 -80 6 -7 6 -13 2 -13 -5 0
-9 -26 -9 -58 0 -64 -12 -84 -62 -103 -21 -8 -44 -7 -87 2 l-59 12 -26 -29
c-39 -43 -93 -66 -128 -53 -35 12 -53 40 -68 103 -12 51 -38 79 -29 32 2 -14
0 -26 -6 -26 -6 0 -4 -10 4 -22 8 -13 15 -26 15 -31 0 -20 38 -67 61 -77 36
-15 92 -7 127 18 17 12 34 18 38 14 5 -4 5 -2 2 4 -11 18 18 24 85 17 52 -5
67 -3 104 18 24 13 44 29 44 37 0 7 10 17 23 22 12 5 16 9 9 9 -7 1 -10 6 -7
11 3 6 1 10 -4 10 -16 0 -14 30 2 36 8 3 11 17 9 37 -2 19 1 51 7 73 6 21 10
43 10 48 0 5 5 12 11 16 8 5 9 13 2 26 -5 11 -16 32 -23 47 -9 19 -33 37 -75
57 -34 17 -67 30 -73 30 -6 0 -25 12 -42 28 -87 78 -152 99 -207 69z"/>
<path d="M946 5724 c-8 -21 1 -34 25 -34 24 0 25 26 0 39 -15 8 -20 7 -25 -5z"/>
<path d="M777 5564 c-8 -8 1 -24 14 -24 5 0 9 7 9 15 0 15 -12 20 -23 9z"/>
<path d="M1716 5067 c3 -10 9 -15 12 -12 3 3 0 11 -7 18 -10 9 -11 8 -5 -6z"/>
<path d="M1695 5030 c-3 -5 -4 -14 0 -19 3 -5 0 -21 -6 -35 -13 -28 -8 -42 11
-31 9 6 9 10 -1 16 -11 7 -11 9 -1 9 7 0 10 5 7 10 -3 6 -1 10 6 10 8 0 7 5
-2 17 -12 15 -12 16 3 10 12 -4 15 -2 11 9 -6 16 -19 18 -28 4z"/>
<path d="M4805 4970 c-3 -5 -2 -10 4 -10 5 0 13 5 16 10 3 6 2 10 -4 10 -5 0
-13 -4 -16 -10z"/>
<path d="M4590 4940 c-13 -8 -12 -10 3 -10 9 0 17 5 17 10 0 12 -1 12 -20 0z"/>
<path d="M4760 4940 c0 -5 -16 -16 -35 -24 -19 -8 -54 -28 -77 -44 -99 -66
-261 -122 -355 -122 -34 0 -64 -5 -66 -10 -3 -6 -4 -5 -3 2 1 7 16 17 32 23
16 5 32 14 36 20 4 5 8 7 8 3 0 -8 81 21 90 32 3 3 26 14 53 24 26 10 54 24
62 32 8 8 28 21 46 28 21 9 27 16 19 21 -6 4 -17 2 -23 -4 -6 -6 -19 -11 -28
-11 -9 0 -22 -7 -29 -15 -7 -9 -15 -13 -18 -10 -3 2 -26 -6 -51 -19 -59 -30
-268 -116 -300 -122 -13 -3 -36 -11 -50 -19 l-26 -14 25 0 c14 -1 46 6 72 13
37 12 53 12 78 3 22 -8 33 -9 38 -1 4 6 15 8 26 5 23 -9 137 6 174 21 15 7 34
12 42 13 8 1 56 24 106 51 117 63 204 134 164 134 -5 0 -10 -4 -10 -10z"/>
<path d="M1665 4900 c-14 -27 -14 -30 0 -30 8 0 14 3 14 8 -1 4 0 9 1 12 5 13
8 40 4 40 -2 0 -10 -13 -19 -30z"/>
<path d="M1630 4861 c0 -6 -11 -16 -25 -23 -13 -6 -22 -15 -19 -19 5 -9 -9
-13 -33 -10 -7 1 -13 -3 -13 -8 0 -5 -10 -13 -22 -17 -13 -3 -55 -22 -95 -40
-39 -19 -80 -34 -90 -34 -11 0 -23 -3 -27 -7 -4 -4 -19 -9 -33 -11 -54 -7 -60
-23 -8 -18 28 2 50 5 50 6 0 1 11 4 25 6 89 16 236 91 259 132 7 13 12 14 23
4 8 -6 19 -8 24 -4 5 4 1 -3 -9 -14 -15 -18 -15 -22 -4 -27 9 -3 13 -15 10
-31 -3 -14 -9 -23 -14 -20 -5 3 -9 0 -9 -6 0 -7 7 -10 15 -6 13 5 13 3 0 -17
-13 -21 -13 -23 4 -24 16 -1 19 4 16 33 -2 19 1 34 6 34 17 0 9 38 -8 43 -17
4 -17 5 0 6 21 1 22 24 1 45 -8 9 -12 16 -7 16 5 0 14 -5 21 -12 9 -9 12 -8
12 5 0 9 -4 17 -9 17 -5 0 -16 3 -25 6 -9 3 -16 1 -16 -5z"/>
<path d="M1315 4825 c-16 -13 -26 -24 -21 -25 5 0 3 -7 -4 -15 -7 -8 -16 -13
-20 -10 -4 3 -10 -7 -13 -22 l-5 -26 30 32 c16 17 33 31 39 31 5 0 9 5 9 11 0
16 26 39 35 31 5 -4 5 -1 1 6 -10 17 -17 15 -51 -13z"/>
<path d="M221 4799 c-11 -12 -19 -31 -17 -42 3 -22 32 -47 54 -47 17 0 47 29
38 37 -3 3 -2 11 2 17 13 16 -10 51 -35 54 -12 2 -30 -6 -42 -19z m54 -19 c-3
-43 -45 -52 -45 -10 0 11 9 20 23 23 12 2 22 5 23 6 0 0 0 -8 -1 -19z"/>
<path d="M6080 4805 c-17 -21 -9 -27 13 -10 10 7 14 16 9 19 -5 3 -15 -1 -22
-9z"/>
<path d="M6253 4789 c1 -6 -13 -19 -30 -28 -18 -9 -33 -20 -33 -25 0 -11 -33
-40 -90 -79 -25 -17 -54 -41 -65 -54 -11 -13 -24 -23 -28 -23 -10 0 -90 -52
-99 -65 -5 -6 -8 -6 -8 0 0 5 -5 4 -12 -3 -7 -7 -22 -12 -34 -12 -13 0 -26 -5
-29 -10 -4 -6 -11 -8 -16 -5 -5 4 -9 2 -9 -4 0 -15 79 -9 85 7 2 6 13 12 23
12 10 0 33 11 52 25 19 14 40 25 47 25 7 0 13 5 13 11 0 5 13 15 29 20 16 6
32 17 35 25 3 8 12 14 20 14 8 0 16 4 18 8 2 4 22 23 45 41 23 19 40 37 38 41
-3 5 2 10 10 14 8 3 15 11 15 18 0 7 9 19 20 26 21 13 27 32 10 32 -5 0 -9 -5
-7 -11z"/>
<path d="M6775 4770 c-3 -5 -1 -10 4 -10 6 0 11 5 11 10 0 6 -2 10 -4 10 -3 0
-8 -4 -11 -10z"/>
<path d="M5978 4744 c-21 -13 -40 -24 -43 -24 -3 -1 -25 -9 -51 -20 -25 -11
-49 -20 -54 -20 -5 0 -10 -3 -12 -7 -4 -11 -115 -50 -208 -74 -41 -11 -82 -23
-90 -26 -8 -4 -22 -8 -30 -9 -8 -1 -55 -10 -105 -19 -88 -17 -314 -35 -313
-25 1 19 -4 23 -12 10 -9 -13 -10 -13 -10 0 0 8 -15 22 -33 30 -29 14 -32 19
-32 65 0 28 3 55 8 61 4 6 0 17 -10 25 -11 9 -14 10 -9 2 4 -7 3 -13 -3 -13
-6 0 -18 -8 -28 -18 -28 -29 -93 -50 -133 -44 -74 12 -356 7 -372 -6 -9 -7
-20 -12 -24 -11 -21 5 -83 -14 -77 -24 3 -6 1 -7 -6 -3 -6 4 -25 0 -43 -8 -17
-9 -37 -16 -44 -16 -7 0 -18 -8 -23 -17 -6 -10 -11 -14 -11 -9 0 5 -9 1 -19
-8 -11 -10 -24 -15 -29 -12 -6 3 -12 -1 -16 -9 -3 -8 -12 -15 -21 -15 -8 0
-15 -5 -15 -11 0 -5 -4 -7 -10 -4 -5 3 -10 1 -10 -5 0 -6 -4 -9 -9 -5 -6 3
-14 -2 -19 -11 -11 -21 -93 -27 -89 -7 2 11 -1 13 -21 13 -5 0 -18 -8 -30 -18
-18 -16 -31 -17 -83 -11 -34 4 -73 3 -86 -2 -15 -5 -22 -5 -18 0 3 5 1 12 -5
16 -5 3 -10 1 -10 -4 0 -6 -5 -10 -11 -9 -6 2 -13 -2 -15 -7 -5 -14 52 -38 67
-29 9 5 10 0 6 -15 -3 -13 -3 -20 0 -17 4 3 13 0 21 -7 13 -9 14 -9 8 1 -4 6
-3 12 2 12 6 0 13 -7 16 -16 3 -8 11 -12 17 -8 6 3 24 -4 41 -16 29 -21 45
-27 78 -29 9 -1 11 -4 5 -9 -6 -4 -10 -13 -9 -19 1 -7 2 -17 3 -23 0 -5 8 -10
17 -10 9 0 14 6 11 13 -2 6 -11 11 -18 9 -9 -2 -7 4 5 17 11 12 22 19 25 16 3
-4 -1 -10 -9 -15 -9 -6 -10 -10 -3 -10 7 0 16 7 21 16 6 10 26 17 53 19 29 3
38 1 29 -6 -20 -12 4 -12 28 0 40 22 220 72 329 92 118 22 437 40 471 28 9 -4
37 -9 62 -12 25 -3 67 -8 94 -13 36 -5 47 -4 42 4 -4 7 -2 12 3 12 6 0 11 -4
11 -9 0 -5 12 -14 28 -19 15 -6 21 -11 13 -11 -11 -1 -9 -6 5 -22 10 -12 18
-23 17 -25 -2 -2 0 -3 5 -1 4 1 6 8 6 14 -1 7 2 11 6 8 5 -3 10 1 13 7 3 10 9
10 28 2 49 -24 90 -37 96 -30 4 3 -4 18 -18 33 -13 14 -18 23 -11 19 6 -4 12
-2 12 3 0 14 -17 14 -25 1 -4 -6 -11 -5 -19 3 -8 6 -12 15 -9 19 2 4 -3 5 -11
2 -9 -3 -16 -1 -16 5 0 6 -7 11 -15 11 -9 0 -28 11 -42 24 l-26 25 24 5 c13 3
65 10 114 17 112 14 319 63 405 97 8 3 17 6 20 7 3 1 19 7 35 14 17 6 49 19
73 28 23 9 42 20 42 24 0 5 7 9 15 9 19 0 85 32 85 41 0 4 11 10 25 13 14 4
25 13 25 21 0 18 3 19 -42 -11z"/>
<path d="M1213 4726 c-24 -11 -31 -26 -12 -26 11 0 44 29 38 33 -2 2 -14 -2
-26 -7z"/>
<path d="M6604 4676 c-56 -28 -141 -64 -190 -79 -49 -15 -102 -33 -119 -39
-16 -6 -59 -17 -95 -24 -36 -8 -76 -19 -90 -24 -24 -8 -48 -12 -163 -27 -27
-3 -44 -9 -37 -13 6 -4 34 -3 63 2 29 4 74 11 102 14 27 3 57 10 66 15 9 4 19
5 23 2 3 -3 6 -2 6 3 0 5 19 9 43 9 23 0 51 5 62 9 24 11 21 10 65 20 77 17
195 59 245 88 11 7 43 25 71 40 56 31 87 59 63 57 -8 -1 -60 -24 -115 -53z"/>
<path d="M7055 4710 c3 -5 8 -10 11 -10 2 0 4 5 4 10 0 6 -5 10 -11 10 -5 0
-7 -4 -4 -10z"/>
<path d="M520 4703 c0 -6 -12 -23 -27 -39 -16 -16 -28 -40 -28 -54 -1 -16 -6
-24 -15 -22 -10 2 -8 -4 6 -15 11 -10 20 -25 19 -33 -1 -24 51 -50 114 -57 56
-5 60 -4 91 26 18 17 28 31 22 31 -6 0 -13 -4 -17 -10 -3 -5 -12 -7 -20 -3 -8
3 -15 0 -15 -7 0 -12 -52 -9 -115 6 -26 6 -45 36 -50 79 -4 27 -1 35 15 40 11
4 24 15 30 25 9 17 11 17 47 -1 21 -11 48 -18 61 -16 16 3 20 1 13 -6 -6 -6
-5 -14 5 -24 8 -8 14 -30 14 -49 0 -19 3 -34 8 -34 18 1 32 18 26 33 -4 11 -1
17 7 17 8 0 6 5 -6 14 -10 7 -19 24 -20 37 -1 18 -10 26 -36 33 -19 5 -37 14
-40 19 -9 13 -89 22 -89 10z"/>
<path d="M3990 4700 c0 -5 5 -10 11 -10 5 0 7 5 4 10 -3 6 -8 10 -11 10 -2 0
-4 -4 -4 -10z"/>
<path d="M1146 4684 c-11 -8 -16 -14 -10 -14 13 0 39 18 34 24 -3 2 -14 -2
-24 -10z"/>
<path d="M3940 4685 c-9 -11 -10 -15 -1 -15 7 0 19 7 27 15 13 13 13 15 1 15
-8 0 -20 -7 -27 -15z"/>
<path d="M7096 4673 c-8 -9 24 -43 41 -43 7 0 13 5 13 10 0 6 -4 10 -9 10 -5
0 -16 7 -24 15 -8 8 -17 11 -21 8z"/>
<path d="M1621 4661 c-11 -7 -11 -9 0 -13 12 -4 12 -7 0 -21 -10 -13 -10 -17
-1 -17 7 0 10 -6 7 -14 -3 -8 1 -17 9 -20 23 -9 24 -8 24 27 0 24 -3 28 -10
17 -5 -8 -10 -10 -10 -4 0 5 5 15 10 20 15 15 -11 36 -29 25z"/>
<path d="M8247 4656 c-3 -8 -3 -17 0 -20 12 -12 11 -55 -1 -65 -8 -7 -12 -30
-11 -61 1 -30 -2 -50 -8 -50 -7 0 -7 -4 1 -12 8 -8 9 -15 1 -25 -9 -10 -8 -13
3 -13 9 0 15 12 17 33 6 81 9 98 21 112 9 11 9 15 1 15 -7 0 -9 4 -6 10 3 5 8
19 10 31 2 11 7 29 10 40 5 14 2 19 -13 19 -11 0 -22 -6 -25 -14z"/>
<path d="M695 4630 c3 -5 8 -10 11 -10 2 0 4 5 4 10 0 6 -5 10 -11 10 -5 0 -7
-4 -4 -10z"/>
<path d="M5117 4633 c-22 -21 28 -47 69 -37 24 6 24 7 8 25 -17 18 -64 26 -77
12z"/>
<path d="M6861 4618 c-13 -35 -71 -64 -141 -71 -82 -7 -204 -71 -265 -139 -56
-62 -105 -145 -98 -164 3 -8 0 -14 -6 -14 -6 0 -11 -6 -11 -12 0 -7 14 3 29
22 35 41 48 35 31 -14 -6 -20 -9 -40 -6 -45 3 -5 -1 -14 -9 -21 -19 -16 -19
-40 0 -40 8 0 15 6 15 14 0 7 7 27 15 42 8 16 15 41 15 55 0 49 20 89 48 95
15 4 41 15 57 24 52 31 224 42 360 25 33 -5 69 -8 80 -9 20 0 56 -26 36 -26
-6 0 -11 -9 -11 -21 0 -11 5 -17 10 -14 6 3 10 1 10 -4 0 -6 -4 -11 -9 -11 -4
0 -11 -32 -15 -72 -5 -53 -3 -74 6 -80 10 -6 9 -8 -2 -8 -19 0 -41 -85 -26
-100 7 -7 4 -10 -7 -10 -11 0 -17 -8 -17 -23 0 -13 -4 -27 -9 -33 -4 -5 -14
-30 -21 -56 -7 -26 -18 -49 -26 -52 -8 -3 -14 -14 -14 -24 0 -10 -9 -27 -20
-37 -11 -10 -19 -23 -17 -29 2 -6 -11 -25 -30 -42 -18 -17 -33 -36 -33 -41 0
-13 -45 -53 -120 -105 -57 -40 -72 -45 -117 -46 -29 0 -53 4 -53 10 0 5 -5 6
-12 2 -6 -4 -8 -3 -4 4 3 6 0 16 -7 24 -12 12 -49 83 -53 101 -1 4 -2 16 -3
28 0 11 -5 17 -11 14 -6 -3 -7 1 -4 10 4 8 1 22 -6 30 -10 12 -9 15 4 15 9 0
17 -1 19 -2 1 -1 16 6 34 17 34 20 48 52 32 71 -7 8 -6 14 3 17 9 4 2 16 -20
37 -25 23 -37 28 -46 20 -20 -16 -41 13 -27 38 6 11 7 22 4 26 -11 11 -12 36
-1 36 6 0 8 11 6 25 -3 14 -1 28 3 31 18 11 8 25 -13 22 -18 -2 -22 -9 -20
-26 2 -13 -2 -30 -8 -38 -10 -11 -10 -14 0 -14 10 0 10 -4 -1 -16 -10 -13 -10
-17 2 -26 11 -7 11 -11 2 -15 -7 -2 -13 -11 -13 -19 0 -8 6 -14 13 -14 9 0 9
-2 0 -8 -7 -4 -11 -18 -8 -30 2 -12 0 -24 -5 -27 -13 -8 -1 -78 14 -87 8 -6 7
-8 -2 -8 -10 0 -9 -4 3 -16 13 -14 14 -19 3 -25 -11 -7 -11 -9 1 -9 9 0 11 -8
6 -27 -5 -23 -4 -25 9 -14 13 11 13 9 3 -19 -11 -28 -10 -33 7 -46 11 -8 16
-14 10 -14 -5 0 -2 -5 6 -10 13 -9 13 -10 0 -10 -13 -1 -13 -2 1 -13 9 -7 21
-22 28 -34 6 -13 20 -23 31 -23 10 0 22 -5 26 -11 19 -31 192 25 234 76 7 8
19 15 26 15 8 0 14 7 14 15 0 8 7 15 15 15 8 0 15 6 15 13 0 6 15 27 34 45 18
18 39 48 46 67 8 19 20 35 28 35 9 0 13 7 9 20 -3 11 -2 18 2 15 11 -6 43 64
35 77 -4 6 -2 8 3 5 6 -4 13 0 17 8 3 8 0 15 -7 15 -7 0 -4 5 6 11 11 7 16 17
12 29 -3 11 0 20 11 24 11 4 15 14 12 29 -3 13 2 29 10 36 12 11 12 15 0 22
-10 7 -10 9 0 9 9 0 12 10 8 35 -4 22 -2 35 5 35 7 0 8 11 4 30 -4 19 -3 30 4
30 6 0 11 18 11 40 0 22 -4 40 -9 40 -11 0 -7 30 8 59 9 16 22 20 73 21 92 2
108 3 108 12 0 7 72 48 85 48 3 0 5 -12 5 -27 1 -25 2 -26 14 -10 7 9 18 17
25 17 6 0 11 9 11 19 0 11 10 27 23 36 l22 17 -22 -7 c-23 -6 -27 1 -26 43 2
28 -32 5 -38 -27 -4 -18 -12 -37 -18 -40 -6 -4 -41 -3 -78 2 -38 5 -78 9 -90
10 -11 1 -19 5 -16 10 4 6 -20 11 -39 8 -5 0 -8 3 -8 8 0 5 -11 8 -24 7 -15
-2 -27 3 -31 11 -3 9 -12 13 -21 9 -8 -3 -24 -2 -34 4 -10 5 -32 11 -49 12
-31 2 -36 10 -32 50 1 10 -2 26 -8 35 -9 16 -11 15 -20 -9z m169 -373 c14 -19
14 -19 -2 -6 -10 7 -18 18 -18 24 0 6 1 8 3 6 1 -2 9 -13 17 -24z m-580 -366
c9 -16 8 -26 -5 -45 -21 -33 -39 -26 -43 16 -5 47 28 67 48 29z m-53 -241 c-3
-8 -6 -5 -6 6 -1 11 2 17 5 13 3 -3 4 -12 1 -19z"/>
<path d="M7142 4621 c-8 -5 1 -13 24 -25 20 -9 38 -15 41 -13 9 9 -54 45 -65
38z"/>
<path d="M7340 4585 c0 -8 4 -15 10 -15 5 0 7 7 4 15 -4 8 -8 15 -10 15 -2 0
-4 -7 -4 -15z"/>
<path d="M1627 4564 c-4 -4 -3 -12 0 -18 11 -17 12 -36 2 -36 -5 0 -9 -5 -9
-11 0 -5 5 -7 12 -3 7 4 8 3 4 -5 -4 -6 -2 -18 4 -26 10 -12 10 -18 0 -30 -10
-13 -10 -19 5 -35 9 -10 14 -24 10 -30 -4 -7 -4 -15 1 -19 13 -9 36 -64 24
-56 -17 10 -11 -7 8 -22 10 -9 11 -12 2 -7 -12 6 -13 5 -2 -7 11 -12 14 -12
22 1 7 11 10 11 10 2 0 -7 -7 -15 -15 -18 -8 -4 -15 -10 -15 -16 0 -5 4 -6 10
-3 5 3 7 0 4 -8 -3 -8 2 -17 10 -20 9 -4 12 -14 9 -25 -3 -13 3 -25 16 -34 12
-8 18 -18 14 -21 -3 -4 -1 -7 6 -7 7 0 10 -4 7 -9 -7 -10 43 -81 85 -122 32
-32 40 -20 9 13 -11 12 -20 30 -20 41 0 14 -5 18 -20 14 -16 -4 -18 -2 -11 11
8 18 -10 64 -25 62 -5 -1 -10 4 -13 11 -2 7 1 9 9 4 9 -5 11 -4 6 4 -4 6 -12
8 -18 5 -7 -5 -9 -1 -5 9 6 17 -37 127 -51 127 -4 0 -8 21 -9 47 -2 38 -8 51
-30 69 -25 20 -25 22 -6 17 19 -4 21 -2 16 19 -3 12 -10 28 -14 34 -5 5 -5 21
-2 34 5 18 3 21 -8 15 -11 -7 -12 -6 -2 7 11 12 10 18 -5 32 -10 9 -22 13 -25
10z"/>
<path d="M7230 4566 c0 -3 9 -10 20 -16 11 -6 20 -8 20 -6 0 3 -9 10 -20 16
-11 6 -20 8 -20 6z"/>
<path d="M6467 4549 c-24 -14 -12 -29 24 -29 36 0 72 17 64 31 -8 12 -65 11
-88 -2z"/>
<path d="M3637 4504 c-11 -11 -8 -42 4 -50 15 -9 38 14 23 24 -6 4 -13 13 -15
20 -3 7 -8 10 -12 6z"/>
<path d="M3657 4437 c-3 -8 1 -14 9 -14 8 0 14 6 14 14 0 7 -4 13 -9 13 -5 0
-11 -6 -14 -13z"/>
<path d="M8219 4373 c-6 -16 -12 -44 -14 -63 -1 -19 -4 -35 -5 -35 -1 0 -3 -7
-5 -16 -16 -86 -16 -85 -4 -64 11 18 23 62 33 122 2 12 7 35 11 52 8 38 -2 41
-16 4z"/>
<path d="M7338 4348 c10 -13 10 -18 0 -29 -7 -8 -13 -18 -13 -24 0 -15 -35
-128 -46 -148 -5 -10 -7 -22 -4 -27 4 -6 1 -10 -6 -10 -7 0 -9 -3 -6 -7 4 -3
0 -17 -9 -30 -10 -17 -12 -28 -5 -37 15 -18 -3 -40 -28 -33 -12 3 -21 1 -21
-4 0 -5 5 -9 12 -9 13 0 2 -14 -13 -16 -5 -1 -11 -2 -14 -3 -3 0 0 -11 6 -23
6 -13 8 -20 4 -16 -9 8 -35 -14 -28 -24 6 -11 -42 -79 -50 -71 -4 3 -7 4 -7 1
0 -3 8 -12 17 -19 9 -8 14 -9 10 -3 -4 7 0 15 9 18 8 3 12 10 9 16 -3 5 1 10
10 10 11 0 15 5 11 15 -3 9 3 23 14 32 11 10 20 25 20 35 0 24 17 23 25 -2 4
-12 0 -26 -10 -36 -9 -9 -14 -23 -11 -31 3 -8 1 -11 -4 -8 -6 3 -10 2 -10 -3
0 -6 7 -12 15 -16 16 -6 42 26 48 59 2 11 9 30 15 43 7 12 10 27 7 32 -3 6 -1
10 4 10 6 0 11 7 11 16 0 8 -4 12 -10 9 -15 -10 -12 2 6 20 10 10 17 33 17 56
0 21 4 39 10 39 5 0 7 9 4 20 -3 11 -2 20 2 20 4 0 8 6 9 13 0 6 7 35 15 64
11 37 12 54 4 62 -8 8 -8 11 1 11 19 0 14 14 -10 29 -21 13 -22 13 -10 -1z
m-78 -365 c-1 -18 -18 -35 -24 -24 -4 6 -4 16 -1 21 7 12 25 13 25 3z"/>
<path d="M3687 4321 c-4 -17 -3 -21 5 -13 5 5 8 16 6 23 -3 8 -7 3 -11 -10z"/>
<path d="M5187 4288 c3 -13 9 -27 13 -33 4 -5 6 -23 4 -40 -2 -22 -1 -26 6
-15 6 9 10 10 10 3 0 -6 -4 -14 -8 -17 -12 -7 -2 -66 12 -66 8 0 8 -2 0 -8
-17 -10 -27 -125 -11 -117 7 4 5 1 -4 -7 -9 -7 -19 -30 -23 -51 -4 -21 -16
-52 -26 -70 -10 -17 -17 -34 -14 -39 3 -4 0 -8 -5 -8 -6 0 -11 -6 -11 -13 0
-7 -20 -34 -45 -59 -25 -26 -45 -51 -45 -57 0 -6 -3 -10 -7 -9 -5 2 -26 -8
-48 -21 -65 -40 -87 -51 -101 -51 -19 0 -64 -22 -64 -32 0 -4 7 -8 16 -8 9 0
12 5 8 12 -5 7 -2 9 9 5 9 -3 42 3 74 14 90 31 113 43 113 56 0 7 8 13 17 13
9 0 13 3 10 7 -4 3 7 16 24 29 18 13 41 38 52 56 11 18 23 35 26 38 12 9 50
93 46 101 -3 4 2 10 11 13 9 4 14 9 11 13 -4 3 -2 14 3 24 7 12 6 19 -2 21 -9
3 -7 10 5 23 15 14 16 20 5 27 -10 8 -10 11 0 15 14 6 16 43 2 43 -11 0 -9 28
4 48 4 7 2 19 -4 27 -7 8 -9 15 -4 15 5 0 2 5 -6 10 -13 9 -13 10 0 10 13 0
13 1 0 10 -10 6 -11 10 -2 10 6 0 12 7 12 15 0 8 -4 15 -10 15 -5 0 -7 7 -4
15 4 8 1 15 -6 15 -6 0 -8 5 -4 11 7 12 -12 29 -33 29 -7 0 -9 -9 -6 -22z"/>
<path d="M4186 4262 c5 -4 12 -11 15 -15 3 -5 9 -2 12 5 3 9 -3 14 -15 15 -11
1 -16 -1 -12 -5z"/>
<path d="M3687 4249 c7 -7 15 -10 18 -7 3 3 -2 9 -12 12 -14 6 -15 5 -6 -5z"/>
<path d="M3704 4225 c-15 -12 -16 -16 -5 -24 7 -5 10 -14 7 -20 -4 -6 -3 -11
2 -11 6 0 13 -7 16 -16 5 -12 2 -15 -11 -10 -16 5 -16 5 1 -8 10 -8 15 -19 11
-25 -3 -6 -3 -11 2 -11 4 0 9 -14 9 -32 1 -17 9 -37 18 -43 10 -8 14 -19 9
-30 -4 -12 -3 -16 4 -12 7 5 9 0 6 -12 -3 -13 2 -23 15 -30 27 -14 25 -74 -2
-79 -13 -3 -17 0 -14 10 6 13 -16 41 -25 32 -2 -3 -7 7 -11 21 -4 14 -11 25
-17 25 -6 0 -7 -5 -3 -12 4 -6 3 -8 -4 -5 -5 4 -8 16 -5 27 4 16 0 20 -17 20
-15 0 -20 5 -17 14 8 21 -3 27 -19 11 -17 -17 -18 -26 -1 -22 6 1 11 -4 9 -11
-1 -7 5 -15 13 -18 8 -4 15 -15 15 -26 0 -12 6 -18 18 -16 12 2 16 -3 14 -19
-2 -14 4 -23 18 -28 11 -3 20 -12 20 -19 0 -7 16 -28 37 -47 20 -18 33 -29 29
-22 -3 6 -2 14 3 17 5 4 8 -5 7 -19 -2 -13 1 -22 5 -19 5 3 9 0 9 -6 0 -16 97
-110 114 -110 20 0 31 37 16 55 -10 12 -9 16 6 22 11 5 20 13 21 20 3 16 -36
28 -49 15 -8 -8 -4 -9 13 -6 21 5 22 4 6 -6 -10 -7 -21 -9 -25 -6 -10 10 -11
37 -1 30 5 -3 9 0 9 6 0 6 -11 15 -25 20 -16 6 -23 14 -19 25 4 10 0 15 -11
15 -9 0 -13 5 -9 11 10 17 -18 30 -35 16 -12 -10 -12 -9 -1 9 12 19 11 24 -3
38 -8 9 -20 16 -25 16 -6 0 -8 8 -5 18 5 21 -21 75 -31 65 -4 -4 -4 0 0 10 3
10 1 17 -6 17 -6 0 -9 4 -6 9 4 5 1 11 -6 13 -6 2 -11 20 -10 41 1 20 -4 40
-12 44 -7 4 -15 16 -19 26 -5 12 -3 16 4 11 7 -4 10 -1 7 7 -3 8 -11 13 -17
12 -13 -4 -15 14 -1 19 5 2 6 9 2 15 -6 10 -12 10 -28 -2z m120 -404 c-9 -10
-26 18 -18 30 5 9 9 8 14 -7 4 -10 6 -21 4 -23z"/>
<path d="M3972 4211 c2 -17 1 -28 -4 -25 -15 9 -8 -9 7 -20 9 -6 16 -26 18
-43 2 -37 3 -38 21 -20 7 7 9 22 5 37 -4 14 -8 18 -8 10 -1 -13 -2 -13 -11 0
-6 9 -5 17 2 21 8 5 6 13 -6 24 -13 13 -14 20 -5 31 9 11 8 14 -6 14 -13 0
-16 -6 -13 -29z"/>
<path d="M4210 4175 c-10 -12 -9 -15 4 -15 11 0 14 5 10 12 -5 8 -2 9 10 5 10
-4 15 -3 11 3 -9 14 -21 12 -35 -5z"/>
<path d="M4223 4130 c-1 -11 2 -20 7 -20 4 0 7 7 6 15 -3 23 -12 26 -13 5z"/>
<path d="M8073 4125 c0 -8 4 -12 9 -9 4 3 8 9 8 15 0 5 -4 9 -8 9 -5 0 -9 -7
-9 -15z"/>
<path d="M1870 4089 c0 -5 5 -7 10 -4 6 3 10 8 10 11 0 2 -4 4 -10 4 -5 0 -10
-5 -10 -11z"/>
<path d="M3585 4090 c-3 -6 1 -13 9 -16 9 -3 13 -10 10 -16 -6 -9 23 -48 36
-48 5 0 10 6 13 14 4 10 0 12 -14 9 -10 -3 -19 0 -19 6 0 6 5 11 11 11 6 0 4
7 -5 15 -8 8 -20 15 -26 15 -6 0 -8 5 -5 10 3 6 4 10 1 10 -3 0 -8 -5 -11 -10z"/>
<path d="M4009 4087 c-12 -9 -14 -19 -7 -44 5 -18 13 -33 19 -33 6 0 7 -4 4
-10 -10 -16 5 -12 23 6 14 15 14 18 1 28 -9 6 -14 17 -11 25 3 9 0 11 -8 6 -9
-5 -10 -2 -5 14 7 24 6 25 -16 8z"/>
<path d="M8070 4086 c0 -2 7 -6 15 -10 8 -3 15 -1 15 4 0 6 -7 10 -15 10 -8 0
-15 -2 -15 -4z"/>
<path d="M4244 4063 c3 -20 23 -36 35 -29 19 12 12 34 -13 38 -16 3 -23 0 -22
-9z"/>
<path d="M1872 4057 c-8 -10 -6 -13 9 -14 10 -1 19 5 19 13 0 17 -14 18 -28 1z"/>
<path d="M8051 4063 c1 -5 0 -10 -1 -13 -1 -3 -4 -17 -6 -32 -4 -22 -1 -26 11
-22 9 4 13 9 11 12 -3 3 2 11 11 17 15 11 15 15 4 29 -14 17 -32 22 -30 9z"/>
<path d="M1892 4021 c-10 -6 -9 -11 3 -21 8 -7 18 -10 22 -6 3 3 0 6 -8 6 -12
0 -12 2 0 9 7 5 9 11 4 14 -5 3 -15 2 -21 -2z"/>
<path d="M4277 4018 c-2 -7 3 -19 12 -26 9 -8 10 -11 4 -7 -7 3 -13 1 -13 -4
0 -10 14 -15 33 -12 5 1 4 -6 -1 -16 -7 -12 -5 -24 5 -40 18 -27 29 -29 37 -8
7 19 -33 95 -51 95 -7 0 -10 6 -7 15 4 8 2 15 -4 15 -6 0 -12 -6 -15 -12z"/>
<path d="M4037 3986 c-12 -9 -14 -16 -7 -21 5 -3 8 -11 5 -16 -8 -12 43 -59
64 -60 11 0 8 -3 -6 -9 -25 -10 -30 -25 -11 -36 7 -5 8 -3 3 7 -8 12 -6 12 9
0 9 -8 15 -20 12 -28 -3 -7 1 -13 10 -13 11 0 13 -6 9 -20 -4 -13 0 -23 14
-32 12 -7 21 -21 21 -30 0 -16 17 -23 42 -19 4 0 5 -6 2 -14 -4 -10 0 -15 12
-15 16 0 16 -2 4 -10 -8 -5 -11 -12 -7 -17 5 -4 12 -1 17 6 9 15 -15 61 -32
61 -5 0 -7 4 -3 9 3 5 -4 12 -15 16 -23 7 -26 21 -7 28 7 4 3 8 -10 12 -13 4
-23 12 -23 17 0 5 5 6 10 3 13 -8 -32 76 -59 110 -11 15 -17 33 -14 42 4 10 2
14 -4 10 -7 -5 -9 0 -6 13 6 23 -4 25 -30 6z"/>
<path d="M1920 3975 c-7 -9 -10 -18 -6 -22 3 -3 6 -1 6 6 0 7 4 10 8 7 5 -3 9
1 9 9 0 19 -2 19 -17 0z"/>
<path d="M8013 3964 c-6 -14 -10 -31 -7 -38 3 -8 -2 -16 -10 -19 -9 -4 -16
-13 -16 -22 0 -8 -5 -15 -11 -15 -5 0 -7 -4 -4 -10 3 -5 -3 -17 -15 -27 -11
-10 -20 -23 -20 -30 0 -7 -4 -13 -10 -13 -5 0 -10 -4 -10 -10 0 -5 -8 -19 -17
-29 -10 -10 -31 -34 -48 -52 -16 -19 -32 -32 -35 -30 -3 2 -10 -6 -16 -18 -6
-11 -13 -18 -16 -15 -3 2 -22 -11 -43 -30 -21 -20 -41 -34 -45 -31 -4 3 -18
-4 -31 -14 l-23 -18 22 1 c12 0 31 9 42 19 11 9 22 17 25 17 19 0 86 38 90 51
3 9 17 22 30 29 14 7 25 17 25 22 0 4 5 8 11 8 14 0 32 20 46 53 7 15 17 27
23 27 6 0 8 5 5 10 -3 6 1 13 9 16 18 7 67 90 69 117 1 9 5 17 9 17 4 0 8 5 8
11 0 7 -9 9 -22 6 -22 -6 -22 -6 -4 8 11 8 26 15 33 15 7 0 13 5 13 10 0 7 -6
7 -19 0 -12 -6 -21 -6 -23 0 -2 5 -8 -2 -15 -16z"/>
<path d="M4473 3920 c-13 -5 -23 -15 -22 -22 0 -10 2 -10 6 0 6 14 59 16 68 2
4 -6 11 -7 17 -4 6 4 1 12 -13 20 -28 15 -27 15 -56 4z"/>
<path d="M1959 3903 c-12 -14 -12 -16 0 -8 11 6 13 4 8 -8 -3 -10 -2 -17 3
-17 5 0 9 11 8 25 -3 30 -2 29 -19 8z"/>
<path d="M4346 3875 c-3 -9 1 -18 10 -22 19 -7 39 11 30 26 -10 16 -33 13 -40
-4z"/>
<path d="M4549 3878 c-6 -22 -4 -35 5 -35 6 0 12 9 12 19 0 14 -13 27 -17 16z"/>
<path d="M4374 3836 c-3 -8 4 -25 17 -38 12 -13 18 -16 14 -8 -8 13 -6 13 7 2
9 -8 19 -9 22 -4 7 11 -18 35 -26 26 -3 -3 -5 2 -4 12 1 22 -22 30 -30 10z"/>
<path d="M7195 3819 c4 -13 3 -19 -2 -16 -12 8 -36 -41 -27 -54 8 -14 34 10
34 32 0 10 5 21 10 24 16 10 12 35 -6 35 -11 0 -14 -6 -9 -21z"/>
<path d="M4530 3819 c0 -5 -4 -8 -9 -4 -5 3 -12 1 -16 -5 -7 -11 5 -13 29 -4
18 7 22 24 6 24 -5 0 -10 -5 -10 -11z"/>
<path d="M7099 3793 c0 -5 -2 -16 -4 -26 -2 -9 0 -15 5 -12 12 7 19 45 9 45
-5 0 -9 -3 -10 -7z"/>
<path d="M4420 3770 c-13 -8 -12 -10 4 -10 11 0 16 -5 13 -14 -3 -8 5 -18 19
-25 13 -6 24 -17 24 -26 0 -8 7 -15 15 -15 8 0 15 -4 15 -10 0 -5 5 -10 11
-10 6 0 22 -9 36 -20 14 -11 40 -22 59 -26 19 -3 34 -10 34 -15 0 -5 -3 -9 -7
-9 -5 0 -39 -7 -76 -15 -64 -13 -185 -14 -206 -1 -5 4 -11 2 -13 -4 -2 -6 -20
1 -41 16 -21 14 -45 23 -52 20 -8 -3 -28 2 -45 10 -17 9 -37 13 -45 10 -9 -3
-12 0 -8 10 3 10 -2 14 -19 14 -14 0 -37 13 -54 29 -15 16 -34 26 -41 24 -8
-3 -13 2 -13 12 0 15 -2 15 -16 4 -10 -8 -12 -15 -5 -17 6 -2 8 -9 4 -15 -4
-6 0 -8 10 -4 11 4 23 -3 36 -19 12 -15 25 -23 32 -18 8 4 9 3 5 -4 -4 -7 -1
-12 8 -12 9 0 16 -4 16 -9 0 -5 17 -15 38 -21 20 -6 44 -14 52 -17 8 -4 18 -5
23 -5 4 1 7 -5 7 -13 0 -8 5 -15 10 -15 6 0 10 6 10 13 0 9 2 9 8 -1 5 -7 22
-15 38 -18 16 -3 44 -9 62 -14 20 -5 43 -5 58 0 13 5 24 6 24 1 0 -8 5 -8 100
7 60 10 137 39 207 78 25 14 48 22 51 19 3 -3 0 -5 -6 -5 -7 0 -11 -3 -10 -7
1 -5 -5 -22 -15 -40 -15 -27 -15 -32 -1 -37 8 -3 12 -2 9 4 -3 6 -2 10 2 10 5
0 14 12 21 28 7 15 21 43 32 62 10 19 19 43 20 53 0 26 -27 21 -46 -9 -19 -29
-109 -84 -138 -84 -10 0 -40 13 -65 28 -25 16 -54 31 -64 35 -10 4 -15 11 -12
17 6 10 -7 14 -34 11 -7 -2 -10 2 -6 9 4 7 -6 24 -24 41 -18 16 -33 29 -34 29
-1 0 -9 -5 -17 -10z"/>
<path d="M7990 3745 c0 -16 16 -20 24 -6 3 5 -1 11 -9 15 -9 3 -15 0 -15 -9z"/>
<path d="M7048 3728 c6 -6 18 -8 28 -6 14 3 12 5 -9 10 -19 3 -25 2 -19 -4z"/>
<path d="M7020 3688 c0 -6 6 -8 14 -5 8 3 17 2 20 -4 2 -5 3 -4 2 2 -3 15 -36
21 -36 7z"/>
<path d="M7949 3671 c-7 -16 -17 -27 -21 -25 -7 5 -11 -10 -5 -21 1 -2 -5 -10
-14 -17 -8 -7 -52 -57 -98 -110 -45 -53 -89 -99 -97 -102 -8 -3 -14 -12 -14
-21 0 -8 -3 -14 -7 -13 -5 2 -19 -6 -31 -17 -13 -11 -35 -30 -49 -42 -15 -12
-41 -24 -60 -28 -18 -3 -33 -10 -33 -15 0 -6 -4 -10 -9 -10 -5 0 -22 -5 -38
-12 -15 -6 -30 -12 -33 -13 -3 0 -29 -7 -57 -14 -29 -7 -51 -17 -48 -21 7 -12
71 -2 105 15 16 8 35 15 43 15 31 0 200 99 252 148 30 29 60 52 66 52 7 0 9 9
6 21 -3 12 -3 18 0 15 8 -7 63 63 63 81 0 8 3 12 8 10 4 -3 15 6 25 19 10 13
13 24 8 24 -6 0 0 11 12 24 30 33 60 86 48 86 -5 0 -15 -13 -22 -29z"/>
<path d="M7000 3660 c0 -5 5 -10 11 -10 5 0 7 5 4 10 -3 6 -8 10 -11 10 -2 0
-4 -4 -4 -10z"/>
<path d="M4240 3635 c0 -8 8 -15 18 -14 10 0 12 3 4 6 -6 2 -10 9 -6 14 3 5 0
9 -5 9 -6 0 -11 -7 -11 -15z"/>
<path d="M7210 3635 c-11 -13 -10 -14 4 -9 9 3 16 10 16 15 0 13 -6 11 -20 -6z"/>
<path d="M6990 3584 c0 -1 6 -7 14 -13 10 -9 15 -8 19 2 3 8 -3 13 -14 13 -11
0 -19 -1 -19 -2z"/>
<path d="M7610 3535 c-7 -9 -8 -15 -2 -15 5 0 12 7 16 15 3 8 4 15 2 15 -2 0
-9 -7 -16 -15z"/>
<path d="M4728 3512 c-14 -24 -59 -75 -145 -167 -43 -45 -225 -175 -246 -175
-4 0 -5 -5 -1 -11 4 -7 1 -10 -7 -7 -8 3 -41 -7 -74 -20 -48 -20 -79 -25 -159
-27 -65 -1 -108 2 -124 11 -13 7 -33 11 -42 9 -10 -2 -21 3 -24 11 -3 8 -17
14 -31 14 -14 0 -25 5 -25 10 0 6 -12 16 -27 23 -32 14 -45 23 -83 57 -29 26
-70 39 -70 20 0 -5 13 -18 30 -29 16 -10 27 -21 23 -24 -3 -4 9 -13 28 -21 19
-9 30 -16 24 -16 -5 0 1 -9 14 -20 12 -11 27 -18 31 -15 5 3 24 -3 44 -14 74
-42 211 -60 317 -41 78 14 205 73 285 134 66 50 174 152 174 165 0 4 11 13 25
19 14 6 25 18 25 27 0 8 4 15 8 15 9 0 72 83 72 94 0 17 -28 2 -42 -22z"/>
<path d="M7019 3505 c-19 -13 -67 -41 -106 -61 -40 -20 -73 -41 -73 -45 0 -5
-3 -8 -7 -8 -22 4 -73 -15 -73 -27 0 -14 33 -18 140 -16 25 1 57 1 72 1 15 1
29 5 33 10 3 6 12 8 20 4 8 -3 15 0 15 6 0 6 9 11 20 11 11 0 20 4 20 8 0 5
-24 4 -52 0 -29 -5 -82 -11 -117 -14 -57 -5 -63 -3 -52 10 7 8 16 15 19 14 18
-4 146 67 169 92 14 16 30 27 34 24 5 -3 9 0 9 5 0 19 -36 12 -71 -14z"/>
<path d="M2183 3333 c-20 -7 -15 -32 5 -29 9 2 16 6 15 10 -5 19 -9 23 -20 19z"/>
<path d="M3636 3323 c-6 -14 -5 -15 5 -6 7 7 10 15 7 18 -3 3 -9 -2 -12 -12z"/>
<path d="M2243 3323 c-7 -3 -13 -15 -13 -29 0 -21 -3 -23 -26 -14 -29 11 -50
13 -41 3 4 -3 0 -17 -8 -30 -11 -16 -12 -23 -4 -23 8 0 6 -7 -4 -18 -10 -10
-17 -22 -17 -27 0 -4 -20 -36 -46 -71 -25 -35 -42 -64 -37 -64 16 0 103 65
103 78 0 6 5 12 10 12 6 0 10 5 10 11 0 7 9 20 21 30 11 10 18 22 15 28 -3 5
-1 11 5 13 10 3 52 99 46 104 -1 0 -8 -1 -14 -3z"/>
<path d="M3645 3300 c-3 -5 1 -10 9 -10 9 0 16 5 16 10 0 6 -4 10 -9 10 -6 0
-13 -4 -16 -10z"/>
<path d="M5681 3261 c-23 -15 -3 -30 37 -28 25 1 37 7 37 17 0 17 -52 25 -74
11z"/>
<path d="M6872 3215 c-7 -16 -8 -26 -1 -30 5 -4 9 -3 8 2 -1 4 1 16 6 26 4 10
5 20 3 22 -3 3 -10 -6 -16 -20z"/>
<path d="M2738 3204 c10 -12 19 -22 22 -22 20 1 30 -4 30 -16 0 -8 15 -17 33
-20 19 -3 44 -18 56 -32 12 -13 26 -22 31 -19 6 3 10 2 10 -4 0 -6 7 -8 15 -4
10 3 15 0 13 -8 -2 -9 5 -13 20 -12 13 2 21 -1 17 -7 -4 -6 1 -7 11 -3 12 4
15 3 10 -5 -5 -8 1 -12 17 -12 14 0 27 -6 30 -14 4 -9 14 -12 26 -9 12 3 21 1
21 -5 0 -6 9 -10 20 -9 11 1 20 5 20 9 0 4 7 5 15 2 8 -3 13 -11 12 -17 -1 -7
10 -13 26 -15 15 -2 27 -7 27 -11 0 -5 20 -14 44 -20 55 -14 66 -14 66 -1 0 6
-3 9 -7 8 -13 -4 -103 43 -103 54 0 6 -8 8 -19 5 -14 -3 -17 0 -14 13 3 10 -1
21 -8 25 -7 5 -10 4 -6 -2 4 -6 -6 -16 -23 -22 -20 -6 -30 -7 -30 0 0 6 -4 7
-10 4 -5 -3 -10 -1 -10 5 0 6 -8 10 -17 8 -10 -2 -26 5 -36 15 -10 10 -24 16
-31 14 -7 -3 -18 3 -24 14 -6 10 -28 21 -47 25 -20 3 -33 9 -30 12 8 8 -75 53
-86 46 -5 -3 -12 2 -15 11 -4 9 -15 15 -28 13 -13 -2 -21 3 -21 11 0 8 -10 15
-22 16 -20 1 -21 1 -5 -21z"/>
<path d="M6814 3190 c-22 -16 -44 -34 -51 -40 -7 -5 -19 -10 -26 -10 -15 0
-40 -24 -33 -31 2 -2 -7 -5 -22 -6 -14 0 -32 -9 -39 -19 -7 -10 -13 -15 -13
-11 0 4 -21 -4 -47 -18 -27 -14 -54 -25 -61 -25 -7 0 -11 -3 -9 -7 3 -5 -6 -9
-20 -10 -14 0 -29 -7 -33 -13 -4 -7 -13 -9 -19 -6 -6 4 -11 2 -11 -4 0 -6 -5
-8 -10 -5 -6 4 -24 -1 -42 -9 -17 -9 -44 -16 -60 -16 -15 0 -28 -5 -28 -11 0
-5 -5 -7 -10 -4 -6 4 -17 1 -25 -5 -8 -7 -21 -10 -28 -7 -7 3 -21 -1 -31 -8
-10 -8 -24 -11 -32 -8 -8 3 -27 0 -42 -6 -15 -6 -40 -13 -57 -15 -16 -2 -50
-9 -75 -14 -26 -6 -57 -8 -70 -5 -18 5 -21 3 -15 -7 6 -10 4 -12 -10 -7 -9 4
-25 2 -33 -5 -9 -7 -13 -8 -9 -2 4 7 -3 10 -21 7 -40 -6 -512 -9 -512 -3 0 3
-26 6 -58 7 -31 1 -95 7 -142 13 -47 7 -94 13 -105 14 -11 2 -36 6 -55 9 -19
4 -48 9 -65 11 -16 3 -47 10 -68 16 -21 6 -45 10 -55 9 -9 -1 -24 1 -32 4 -16
6 -127 34 -169 42 -13 2 -38 9 -55 14 -17 6 -42 12 -56 15 -14 3 -40 9 -57 15
-20 6 -33 6 -33 0 0 -5 8 -9 18 -9 10 0 22 -4 28 -9 10 -10 108 -43 139 -47
32 -5 57 -11 102 -27 22 -9 44 -13 47 -10 3 3 12 -2 22 -11 10 -10 24 -14 38
-11 18 5 17 4 -4 -9 -14 -9 -33 -15 -42 -16 -10 0 -18 -8 -19 -17 0 -11 -3
-13 -6 -5 -7 18 -20 15 -53 -15 -17 -16 -37 -34 -45 -41 -9 -7 -12 -18 -9 -24
4 -7 2 -8 -4 -4 -7 4 -12 3 -12 -2 0 -21 -97 -44 -182 -43 -21 0 -38 -5 -38
-11 0 -7 -4 -7 -13 1 -8 6 -16 9 -18 6 -11 -10 -68 -14 -74 -5 -4 6 -10 8 -14
5 -5 -2 -22 0 -40 5 -23 6 -30 6 -24 -3 4 -7 0 -6 -10 2 -9 7 -17 10 -17 6 0
-4 -6 -2 -14 4 -11 9 -15 9 -19 -1 -4 -10 -7 -10 -15 1 -6 8 -15 10 -22 6 -9
-5 -11 -4 -6 3 5 8 -2 12 -18 13 -34 2 -39 3 -53 12 -7 5 -17 6 -22 3 -5 -3
-11 1 -15 9 -3 8 -16 15 -28 15 -22 -1 -22 -1 6 -24 16 -14 36 -22 44 -18 10
3 13 1 8 -6 -4 -7 -2 -10 7 -6 7 2 24 1 38 -4 13 -5 28 -10 33 -10 5 0 12 -6
17 -13 4 -7 25 -13 47 -15 22 -1 45 -5 51 -8 6 -4 11 -1 11 6 0 10 2 10 9 -1
5 -7 13 -11 19 -7 6 3 13 2 16 -3 11 -17 266 1 266 19 0 5 8 8 19 7 16 -1 17
-4 7 -22 -21 -37 -60 -75 -78 -75 -15 0 -18 -8 -18 -49 0 -41 -4 -53 -25 -69
-13 -11 -22 -22 -19 -25 12 -11 -46 -105 -68 -110 -12 -4 -19 -9 -16 -12 12
-12 -57 -179 -89 -217 -9 -9 -12 -23 -7 -30 4 -7 4 -10 -1 -6 -9 8 -45 -54
-45 -78 0 -8 -4 -12 -10 -9 -5 3 -11 -1 -11 -9 -1 -9 -3 -20 -4 -26 -1 -5 -3
-15 -4 -20 0 -6 -13 -15 -27 -20 -20 -8 -24 -13 -15 -24 6 -7 8 -15 5 -19 -3
-3 9 -13 28 -23 18 -9 63 -39 100 -65 84 -61 231 -137 278 -144 19 -3 55 -8
80 -11 57 -8 77 -19 85 -44 12 -38 -11 -59 -75 -66 -33 -4 -63 -11 -66 -15 -3
-5 -26 -9 -52 -9 -44 -1 -46 -1 -23 -14 l23 -13 -38 -23 c-21 -13 -45 -23 -54
-23 -8 1 -27 -7 -40 -18 l-25 -20 28 7 c26 6 27 5 18 -17 -25 -65 -50 -112
-50 -97 -1 18 -36 14 -48 -5 -3 -5 -1 -7 4 -4 7 4 10 -10 10 -41 -1 -91 65
-153 208 -196 6 -2 17 -6 25 -9 18 -8 51 -14 150 -28 41 -6 78 -13 82 -15 4
-3 3 -15 -2 -28 -4 -12 -11 -40 -14 -62 -10 -66 -18 -99 -26 -109 -4 -5 -8
-22 -8 -36 0 -26 -28 -113 -43 -134 -3 -5 -10 -23 -13 -40 -3 -16 -9 -41 -12
-55 -12 -46 -11 -130 0 -131 6 0 3 -4 -8 -8 -17 -7 -17 -8 -2 -23 12 -12 13
-18 3 -21 -9 -4 -9 -8 2 -15 7 -5 11 -14 7 -20 -3 -6 -2 -13 4 -17 6 -4 8 -10
5 -15 -3 -5 1 -14 8 -22 7 -7 19 -27 26 -44 14 -36 82 -89 126 -98 17 -3 42
-3 56 1 27 8 153 112 145 120 -4 5 26 43 72 90 13 12 20 23 17 23 -3 0 3 8 12
18 10 11 25 28 34 38 53 62 96 91 141 97 47 6 180 56 186 70 2 4 10 7 19 7 8
0 27 6 41 14 15 7 48 23 74 35 26 12 50 26 53 32 4 5 12 9 19 9 8 0 35 12 61
28 26 15 74 41 106 59 32 18 69 41 81 52 12 12 27 21 33 21 6 0 24 13 41 28
16 16 41 37 57 47 15 9 27 21 27 26 0 6 13 22 29 38 26 25 37 28 122 34 111 8
239 28 239 38 0 4 15 10 34 13 19 4 45 15 59 26 13 11 27 17 30 13 3 -3 35 15
70 40 68 48 157 127 144 127 -5 0 3 15 16 33 32 45 48 85 37 92 -6 4 -10 15
-10 25 0 10 -28 56 -62 101 -76 101 -87 120 -81 135 2 7 -11 17 -31 24 -20 6
-36 16 -36 21 0 5 18 18 39 29 22 11 42 24 46 30 3 5 15 10 26 10 10 0 19 4
19 9 0 10 -28 3 -88 -21 -43 -17 -56 -8 -103 70 -56 91 -56 96 -11 111 22 8
49 10 61 6 16 -5 20 -3 15 8 -5 14 48 67 67 67 6 0 7 5 4 10 -6 9 8 15 29 11
5 -1 6 8 3 20 -3 11 -3 18 0 15 3 -3 12 1 20 9 12 13 8 23 -36 77 -117 146
-141 178 -141 188 0 5 -9 14 -21 20 -15 9 -18 15 -9 25 8 9 7 14 -4 18 -12 5
-55 85 -55 102 0 14 -55 105 -64 105 -5 0 -7 6 -4 13 7 20 -11 59 -25 51 -8
-5 -9 -2 -5 9 4 10 -1 22 -14 31 -15 10 -17 15 -7 19 8 4 6 6 -5 6 -11 1 -17
7 -14 14 6 17 -11 47 -27 47 -8 0 -16 6 -19 14 -3 7 -27 24 -54 37 -36 18 -43
24 -28 27 11 2 29 7 40 12 19 8 82 25 135 36 14 3 27 9 28 15 2 5 12 9 22 9
27 0 130 41 130 52 0 5 4 6 10 3 12 -7 53 19 44 28 -3 3 4 3 17 0 17 -5 21 -3
17 9 -5 11 0 15 15 14 13 -1 21 4 19 12 -2 9 4 11 17 7 14 -4 24 0 32 13 7 12
19 18 28 14 10 -4 13 -1 8 11 -6 16 8 23 36 18 5 -1 6 3 3 8 -4 5 -1 11 4 13
6 2 12 10 13 18 2 8 6 21 10 28 12 19 3 15 -39 -18z m-763 -355 c14 -37 9
-109 -9 -145 -21 -39 -82 -76 -94 -56 -4 6 -3 12 2 14 12 4 -6 49 -36 89 -13
17 -24 36 -24 42 0 6 -3 11 -7 12 -5 0 -18 2 -30 3 -28 3 -27 4 -4 -22 10 -12
21 -18 25 -15 4 4 4 0 0 -10 -3 -9 -1 -17 4 -17 25 0 77 -143 62 -171 -6 -10
-10 -42 -11 -71 0 -29 -3 -47 -6 -40 -8 20 -19 13 -19 -13 0 -14 3 -25 7 -25
8 0 3 -386 -6 -400 -9 -15 -248 -2 -261 15 -6 7 -19 40 -29 72 -10 32 -21 67
-26 78 -4 11 -13 44 -19 73 -7 28 -16 52 -20 52 -4 0 -11 7 -14 16 -3 8 -2 13
3 10 5 -3 11 1 14 9 4 9 1 12 -7 9 -12 -5 -29 9 -32 26 -2 13 -30 66 -37 71
-5 3 -8 9 -8 13 3 22 -1 37 -15 50 -12 12 -12 16 -2 16 10 0 10 2 -1 9 -9 6
-10 11 -2 15 14 9 14 26 0 26 -5 0 -7 -4 -4 -10 3 -5 2 -10 -2 -10 -15 0 -56
94 -44 98 6 2 11 10 11 18 0 8 8 14 17 14 9 0 14 2 11 5 -9 9 112 125 130 125
6 0 9 -6 9 -12 -2 -24 24 -128 34 -134 6 -4 6 -11 -2 -20 -6 -8 -8 -14 -3 -14
5 0 9 -35 10 -77 1 -50 5 -78 13 -81 9 -3 9 -8 -1 -20 -11 -13 -11 -14 1 -7
11 6 13 3 9 -13 -4 -13 -1 -22 5 -22 8 0 9 -3 1 -8 -5 -4 -9 -25 -8 -47 1 -22
3 -48 3 -57 2 -34 17 -18 16 17 -2 44 11 46 20 3 12 -60 15 -64 45 -66 36 -3
115 31 124 53 3 8 0 15 -6 15 -6 0 -5 6 3 17 11 13 11 15 1 9 -16 -10 -13 25
3 36 6 5 5 8 -4 8 -7 0 -11 6 -7 15 3 8 1 15 -5 15 -7 0 -9 10 -5 27 5 17 3
29 -6 35 -10 6 -10 10 2 18 10 6 11 10 3 10 -8 0 -13 13 -13 33 0 19 -7 56
-15 83 -26 87 -12 184 28 184 12 0 17 5 14 14 -4 9 3 13 21 14 39 2 81 8 86
13 2 2 26 4 52 4 38 0 49 -4 55 -20z m-543 -20 c6 -3 12 -10 12 -16 0 -7 -3
-10 -6 -6 -3 3 -16 -5 -29 -18 -12 -14 -25 -22 -28 -18 -4 3 -7 -1 -7 -9 0 -9
-9 -18 -21 -21 -12 -3 -18 -10 -14 -16 3 -6 1 -11 -4 -11 -14 0 -46 -32 -62
-61 l-12 -23 -24 30 c-31 37 -73 130 -73 160 l0 24 128 -5 c70 -4 133 -8 140
-10z"/>
<path d="M5881 2665 c1 -19 18 -51 18 -35 0 8 -4 22 -9 30 -5 8 -9 11 -9 5z"/>
<path d="M5507 2588 c4 -18 6 -41 7 -50 0 -10 4 -18 8 -18 4 0 7 16 5 35 -1
19 -5 35 -9 35 -4 0 -5 7 -2 15 4 8 2 15 -4 15 -6 0 -8 -13 -5 -32z"/>
<path d="M5889 2588 c5 -13 7 -33 5 -45 -2 -13 0 -23 4 -23 4 0 8 20 7 45 0
29 -4 45 -12 45 -9 0 -10 -7 -4 -22z"/>
<path d="M5518 2497 c8 -9 11 -20 9 -25 -3 -4 -2 -14 3 -22 5 -9 8 -2 7 20 -1
20 -8 35 -17 38 -13 4 -13 3 -2 -11z"/>
<path d="M5897 2490 c3 -11 9 -20 14 -20 4 0 7 9 6 20 -1 11 -7 20 -13 20 -7
0 -10 -8 -7 -20z"/>
<path d="M5537 2423 c-10 -9 -9 -23 1 -23 5 0 9 7 9 15 0 17 -1 18 -10 8z"/>
<path d="M5535 2380 c-3 -5 -1 -10 4 -10 6 0 11 5 11 10 0 6 -2 10 -4 10 -3 0
-8 -4 -11 -10z"/>
<path d="M5647 2258 c-2 -7 0 -21 5 -32 6 -10 8 -27 5 -37 -3 -10 -1 -19 5
-19 5 0 7 -4 4 -8 -2 -4 0 -14 5 -22 8 -11 9 -2 4 30 -4 25 -7 51 -8 58 0 6
-4 12 -8 12 -5 0 -6 7 -3 15 4 8 4 15 1 15 -3 0 -7 -6 -10 -12z"/>
<path d="M5841 2234 c0 -11 3 -14 6 -6 3 7 2 16 -1 19 -3 4 -6 -2 -5 -13z"/>
<path d="M5835 2200 c-3 -5 1 -10 10 -10 9 0 13 5 10 10 -3 6 -8 10 -10 10 -2
0 -7 -4 -10 -10z"/>
<path d="M5848 2173 c-2 -4 -4 -15 -3 -23 1 -8 3 -27 3 -42 1 -16 7 -28 13
-28 7 0 8 16 4 47 -6 50 -10 60 -17 46z"/>
<path d="M5760 2149 c0 -5 5 -7 10 -4 6 3 10 8 10 11 0 2 -4 4 -10 4 -5 0 -10
-5 -10 -11z"/>
<path d="M5760 2110 c0 -5 5 -10 10 -10 6 0 10 5 10 10 0 6 -4 10 -10 10 -5 0
-10 -4 -10 -10z"/>
<path d="M5681 2094 c0 -11 3 -14 6 -6 3 7 2 16 -1 19 -3 4 -6 -2 -5 -13z"/>
<path d="M5770 2071 c0 -11 4 -22 9 -25 4 -3 6 6 3 19 -5 30 -12 33 -12 6z"/>
<path d="M3599 3202 c7 -5 10 -15 7 -21 -4 -6 -2 -11 4 -11 17 0 8 33 -10 37
-12 4 -13 3 -1 -5z"/>
<path d="M3640 3166 c0 -12 3 -16 8 -10 10 15 52 12 52 -4 0 -7 5 -10 11 -6 6
3 15 0 20 -7 8 -12 10 -12 18 0 6 9 10 10 14 2 3 -7 4 -7 3 1 -2 7 -10 12 -20
10 -9 -2 -16 2 -16 8 0 6 -4 8 -10 5 -5 -3 -10 -1 -10 5 0 7 -8 9 -20 5 -11
-3 -20 -2 -20 3 0 5 -7 9 -15 9 -9 0 -15 -9 -15 -21z"/>
<path d="M7206 3175 c-16 -9 -36 -24 -45 -34 -9 -10 -34 -29 -56 -44 -60 -38
-148 -123 -141 -135 4 -6 -2 -16 -13 -21 -18 -10 -59 -97 -53 -115 1 -4 -3
-14 -9 -22 -8 -10 -8 -14 0 -14 6 0 10 -8 9 -17 -3 -37 2 -61 15 -66 8 -3 12
10 12 47 1 28 5 60 9 71 5 11 10 25 11 30 6 29 18 55 26 55 5 0 9 5 9 11 0 36
152 189 223 223 31 16 54 32 51 37 -7 12 -14 11 -48 -6z"/>
<path d="M3263 3115 c0 -8 4 -12 9 -9 4 3 8 9 8 15 0 5 -4 9 -8 9 -5 0 -9 -7
-9 -15z"/>
<path d="M3299 3110 c-11 -7 -7 -12 19 -21 17 -6 32 -15 32 -20 0 -8 53 -40
65 -39 22 1 25 -1 20 -10 -4 -6 -3 -10 2 -9 20 3 34 -2 28 -11 -3 -5 3 -10 15
-10 12 0 19 -4 15 -9 -3 -5 10 -15 29 -22 19 -7 33 -16 30 -21 -3 -4 -2 -8 3
-8 4 0 28 -18 51 -40 24 -22 49 -37 55 -33 7 3 9 2 4 -2 -9 -10 22 -47 34 -39
5 3 9 -2 9 -11 0 -10 5 -13 12 -9 6 4 8 3 5 -3 -4 -6 2 -21 13 -33 11 -13 20
-28 20 -35 0 -7 7 -25 15 -42 8 -16 16 -38 18 -49 2 -10 7 -26 10 -34 3 -8 7
-24 9 -35 4 -17 7 -15 26 15 22 35 26 58 24 140 -1 77 -2 80 -16 80 -9 0 -12
7 -9 19 3 12 11 17 19 14 8 -3 14 0 14 5 0 6 -9 9 -19 7 -12 -2 -29 8 -45 28
-28 33 -37 17 -11 -19 8 -12 12 -24 8 -27 -3 -3 2 -13 10 -22 9 -8 14 -22 11
-30 -4 -8 -2 -15 3 -15 5 0 8 -12 7 -27 -1 -16 3 -39 8 -52 7 -21 7 -22 -7
-11 -8 7 -15 17 -15 24 0 12 -67 124 -87 144 -7 7 -19 10 -25 6 -7 -4 -10 -4
-6 1 4 4 2 17 -3 28 -9 16 -13 17 -20 6 -7 -11 -9 -11 -9 3 0 17 -54 65 -68
61 -4 -1 -10 7 -15 19 -4 12 -13 18 -22 14 -8 -3 -14 0 -12 6 1 7 -13 17 -31
23 -18 6 -29 14 -26 18 7 6 -10 11 -28 8 -5 0 -8 4 -8 9 0 6 -8 10 -17 8 -11
-2 -17 2 -15 11 2 9 -4 12 -22 9 -17 -3 -23 -1 -19 8 3 9 -2 11 -18 7 -14 -4
-20 -2 -15 5 3 6 2 13 -4 17 -5 3 -10 0 -10 -7 -1 -9 -5 -8 -13 4 -9 11 -18
14 -28 8z m534 -500 c-7 -28 -13 -25 -13 6 0 14 4 23 9 20 5 -3 7 -15 4 -26z"/>
<path d="M3087 3091 c3 -12 11 -17 19 -14 9 3 14 0 12 -7 -2 -7 5 -14 15 -15
22 -4 14 9 -22 35 -28 19 -29 19 -24 1z"/>
<path d="M4270 3070 c0 -7 24 -20 36 -20 13 0 1 19 -16 23 -11 3 -20 2 -20 -3z"/>
<path d="M4320 3050 c0 -4 9 -10 20 -13 11 -3 20 -2 20 3 0 4 -9 10 -20 13
-11 3 -20 2 -20 -3z"/>
<path d="M6850 2999 c-13 -18 -44 -35 -195 -104 -63 -28 -114 -39 -225 -44
-109 -6 -113 -7 -75 -19 70 -21 252 -3 291 29 8 6 14 9 14 5 0 -3 34 12 76 35
l76 40 -7 -52 c-5 -35 -4 -54 4 -59 7 -4 13 -25 14 -48 1 -29 6 -42 15 -42 8
0 12 -6 10 -12 -5 -16 39 -60 47 -47 4 5 2 9 -2 9 -5 0 -9 9 -10 20 -1 11 -9
35 -18 53 -9 17 -18 51 -20 74 -1 23 -6 47 -10 53 -4 6 1 17 11 24 13 10 14
15 4 21 -6 4 -8 10 -4 14 5 3 17 21 27 39 14 24 15 32 5 32 -8 0 -20 -9 -28
-21z"/>
<path d="M3883 2815 c0 -7 6 -11 14 -8 7 3 13 6 13 8 0 2 -6 5 -13 8 -8 3 -14
-1 -14 -8z"/>
<path d="M8485 2430 c-21 -9 -79 -59 -83 -72 -3 -10 -10 -11 -50 -3 -24 4 -42
0 -68 -15 -19 -12 -32 -25 -29 -30 3 -4 -3 -7 -12 -6 -10 0 -19 -10 -24 -27
-5 -19 -4 -25 4 -20 7 4 6 -1 -2 -10 -7 -9 -10 -17 -6 -17 4 0 2 -6 -4 -13 -6
-8 -8 -17 -4 -20 3 -4 1 -7 -6 -7 -7 0 -9 -5 -6 -10 4 -6 10 -8 15 -5 4 3 6
-4 3 -15 -3 -13 2 -30 14 -43 26 -29 35 -55 21 -63 -7 -4 -8 -3 -4 4 4 7 3 12
-2 12 -5 0 -12 -8 -15 -17 -2 -10 -8 -27 -12 -38 l-8 -20 16 20 16 20 -2 -20
c-1 -11 -6 -23 -11 -26 -33 -25 62 -92 119 -84 56 9 105 25 105 35 0 5 21 -2
48 -15 26 -13 58 -24 72 -26 40 -3 90 12 90 27 0 8 5 14 12 14 6 0 8 3 5 7 -4
3 0 11 8 17 10 8 12 16 5 26 -6 9 -10 11 -10 3 0 -7 -7 -10 -17 -6 -13 5 -15
2 -10 -16 3 -14 1 -21 -6 -18 -7 2 -18 -2 -25 -10 -20 -20 -76 -16 -126 9 -42
20 -47 20 -63 6 -10 -9 -41 -20 -68 -23 -45 -6 -53 -4 -78 19 -29 27 -34 59
-16 100 8 16 17 22 27 19 10 -4 13 -1 10 8 -3 8 2 20 11 27 14 12 12 13 -12 9
-48 -7 -89 71 -67 128 6 16 17 33 23 37 7 4 12 13 12 20 0 7 8 12 17 10 9 -1
19 2 23 8 9 14 48 13 63 -2 9 -9 12 -9 12 0 0 6 6 9 14 6 8 -3 18 7 26 25 7
17 15 30 19 29 3 -1 24 7 45 16 31 14 44 15 64 6 14 -6 22 -13 19 -16 -8 -8
23 -94 34 -94 4 0 6 -7 3 -15 -4 -9 0 -15 9 -15 8 0 17 10 20 21 4 16 10 20
24 14 10 -4 30 -10 45 -12 39 -7 79 -92 56 -120 -6 -7 -8 -13 -5 -13 18 0 -50
-52 -74 -57 -16 -3 -26 -9 -23 -14 7 -13 71 -11 79 2 4 5 18 14 31 19 15 6 22
15 18 25 -4 9 -1 15 9 15 8 0 17 11 19 25 3 14 2 25 -2 25 -4 0 -7 8 -6 18 0
9 -4 16 -11 15 -7 -2 -10 4 -6 12 6 19 -35 60 -69 68 -12 3 -39 10 -58 14 -29
7 -36 15 -44 45 -14 54 -86 90 -141 68z m-230 -470 c3 -6 -1 -7 -9 -4 -18 7
-21 14 -7 14 6 0 13 -4 16 -10z"/>
<path d="M3900 2368 c0 -6 -3 -8 -6 -5 -10 9 -46 -12 -39 -24 4 -5 1 -9 -5 -9
-6 0 -8 -5 -5 -10 3 -6 0 -13 -9 -16 -8 -3 -12 -12 -9 -21 5 -14 9 -13 24 6
17 20 18 20 28 4 6 -11 11 -13 11 -5 0 7 4 11 9 7 5 -3 13 0 17 6 5 8 3 9 -5
5 -9 -6 -11 2 -6 33 3 23 3 41 0 41 -3 0 -5 -5 -5 -12z"/>
<path d="M9008 2352 c-54 -32 -27 -122 35 -122 38 1 87 40 87 70 0 12 -4 19
-10 15 -5 -3 -7 -13 -4 -23 5 -14 4 -14 -4 -2 -6 8 -8 18 -6 22 3 4 -2 8 -10
8 -14 0 -21 -17 -17 -42 1 -13 -40 -20 -54 -8 -27 22 10 87 43 75 6 -3 19 -8
27 -11 9 -4 15 -1 15 9 0 29 -62 35 -102 9z"/>
<path d="M3908 2253 c7 -3 16 -2 19 1 4 3 -2 6 -13 5 -11 0 -14 -3 -6 -6z"/>
<path d="M3820 2240 c0 -5 -6 -10 -13 -10 -8 0 -14 -6 -15 -12 0 -7 -2 -22 -4
-32 -2 -10 3 -21 11 -24 10 -3 12 0 8 11 -3 9 -1 22 6 29 13 14 22 48 12 48
-3 0 -5 -4 -5 -10z"/>
<path d="M3900 2228 c0 -4 7 -8 15 -8 8 0 12 -6 10 -12 -3 -8 4 -14 20 -14 30
-2 34 16 5 23 -11 3 -20 9 -20 12 0 4 -7 8 -15 8 -8 0 -15 -4 -15 -9z"/>
<path d="M3948 2173 c6 -2 9 -9 6 -15 -3 -5 3 -12 15 -15 11 -3 18 -9 15 -14
-3 -5 2 -9 10 -9 9 0 16 -6 16 -14 0 -16 27 -29 34 -17 3 4 -6 15 -19 25 -13
10 -21 24 -19 31 6 15 -25 35 -53 34 -10 0 -13 -3 -5 -6z"/>
<path d="M4060 2150 c-10 -18 -8 -19 15 -10 18 7 25 6 25 -2 0 -6 3 -8 6 -5 8
7 -14 37 -27 37 -5 0 -13 -9 -19 -20z"/>
<path d="M8455 2157 c-17 -13 -16 -15 13 -25 36 -12 61 5 40 26 -16 16 -30 15
-53 -1z"/>
<path d="M1833 2135 c-24 -31 -20 -61 12 -99 20 -23 29 -27 55 -21 39 9 53 34
36 66 -44 84 -68 97 -103 54z m73 -45 c13 -38 4 -60 -25 -60 -12 0 -13 2 -3 9
10 6 7 12 -12 25 -40 25 -33 70 9 64 13 -2 24 -15 31 -38z"/>
<path d="M3765 2150 c-3 -5 -3 -10 1 -10 3 0 -1 -11 -10 -25 -15 -23 -15 -24
1 -18 11 4 14 3 9 -5 -4 -7 -2 -12 3 -12 6 0 11 8 11 18 0 9 3 27 6 40 6 22
-9 31 -21 12z"/>
<path d="M4095 2112 c-6 -6 4 -22 15 -22 4 0 10 6 13 13 5 13 -17 20 -28 9z"/>
<path d="M6780 2080 c0 -6 7 -10 15 -10 8 0 15 2 15 4 0 2 -7 6 -15 10 -8 3
-15 1 -15 -4z"/>
<path d="M4107 2064 c3 -7 9 -14 14 -14 14 0 10 17 -5 23 -10 4 -13 1 -9 -9z"/>
<path d="M3728 2053 c6 -2 18 -2 25 0 6 3 1 5 -13 5 -14 0 -19 -2 -12 -5z"/>
<path d="M6820 2050 c0 -5 12 -17 26 -26 15 -10 24 -24 21 -33 -2 -9 2 -22 10
-29 20 -19 16 -28 -22 -46 -19 -9 -39 -25 -45 -36 -13 -24 -13 -40 0 -20 8 13
11 12 24 -5 15 -20 15 -20 10 1 -4 16 3 26 28 42 18 12 29 22 24 22 -5 0 -3 6
3 14 12 15 5 46 -11 46 -6 0 -8 7 -4 15 8 22 -3 45 -20 38 -8 -3 -14 -1 -14 5
0 5 -7 12 -15 16 -8 3 -15 1 -15 -4z"/>
<path d="M8667 2054 c-4 -4 -7 -17 -7 -30 0 -18 4 -21 21 -17 13 4 17 8 9 13
-6 4 -11 10 -10 14 3 13 -6 27 -13 20z"/>
<path d="M3716 1998 c3 -5 10 -6 15 -3 13 9 11 12 -6 12 -8 0 -12 -4 -9 -9z"/>
<path d="M6695 1990 c3 -5 11 -10 16 -10 6 0 7 5 4 10 -3 6 -11 10 -16 10 -6
0 -7 -4 -4 -10z"/>
<path d="M3725 1970 c-4 -6 -11 -8 -16 -5 -5 4 -9 1 -9 -4 0 -6 4 -11 9 -11
11 0 3 -39 -12 -57 -6 -9 -6 -13 2 -13 6 0 11 5 11 11 0 5 4 8 9 4 6 -3 8 4 6
16 -3 13 0 28 6 36 7 7 8 13 3 13 -5 0 -2 5 6 10 9 6 10 10 3 10 -6 0 -15 -5
-18 -10z"/>
<path d="M6712 1956 c7 -8 15 -12 17 -11 5 6 -10 25 -20 25 -5 0 -4 -6 3 -14z"/>
<path d="M6740 1930 c0 -5 5 -10 11 -10 5 0 7 5 4 10 -3 6 -8 10 -11 10 -2 0
-4 -4 -4 -10z"/>
<path d="M6630 1922 c1 -14 28 -43 34 -34 3 4 -4 16 -15 25 -10 9 -19 13 -19
9z"/>
<path d="M3691 1858 c-1 -10 1 -18 3 -18 2 0 11 -3 20 -6 9 -3 16 -1 16 5 0 6
-6 11 -14 11 -8 0 -17 6 -19 13 -3 7 -6 5 -6 -5z"/>
<path d="M2198 1826 c-25 -17 -33 -29 -31 -49 2 -25 -1 -27 -33 -27 -21 0 -33
-4 -29 -10 3 -5 24 -10 46 -10 36 0 40 2 34 20 -14 46 75 92 127 66 16 -8 26
-10 23 -5 -4 5 -1 9 5 9 6 0 13 -6 16 -14 7 -18 35 -30 31 -13 -4 22 -61 49
-109 53 -36 2 -55 -2 -80 -20z"/>
<path d="M3694 1803 c2 -9 8 -19 14 -21 6 -2 8 5 5 17 -6 25 -22 28 -19 4z"/>
<path d="M3995 1790 c-16 -7 -17 -9 -3 -9 9 -1 20 4 23 9 7 11 7 11 -20 0z"/>
<path d="M2354 1719 c-17 -19 -18 -22 -2 -50 10 -16 14 -29 10 -29 -5 0 -8
-15 -8 -33 0 -35 -29 -84 -54 -89 -13 -3 -13 -5 1 -10 17 -7 73 34 62 45 -3 4
2 15 11 26 11 12 13 20 6 23 -8 2 -8 11 -1 31 6 16 7 26 2 22 -5 -3 -12 -1
-16 5 -3 5 -2 10 3 10 5 0 9 6 9 13 0 6 3 22 7 35 9 28 -5 28 -30 1z"/>
<path d="M3680 1732 c0 -5 7 -13 16 -16 10 -4 14 -1 12 6 -5 15 -28 23 -28 10z"/>
<path d="M2075 1710 c-13 -6 -15 -9 -5 -9 11 -1 12 -3 3 -9 -8 -5 -9 -13 -3
-22 6 -10 10 -11 10 -3 0 7 10 21 22 33 23 21 11 26 -27 10z"/>
<path d="M3635 1682 c-5 -4 -11 -20 -12 -36 -2 -27 -1 -28 13 -10 9 11 13 13
9 6 -4 -8 1 -11 17 -8 13 3 26 5 31 5 4 1 7 10 7 20 0 26 -41 41 -65 23z"/>
<path d="M2055 1640 c-3 -5 -2 -10 3 -10 5 0 13 -14 18 -32 13 -46 65 -73 111
-57 32 10 37 9 64 -17 34 -33 36 -27 9 24 -10 20 -22 46 -26 57 -6 19 -7 18
-13 -5 -9 -35 -50 -53 -83 -38 -27 13 -65 62 -60 79 3 12 -15 12 -23 -1z"/>
<path d="M4107 1619 c7 -7 15 -10 18 -7 3 3 -2 9 -12 12 -14 6 -15 5 -6 -5z"/>
<path d="M3630 1578 c0 -4 4 -8 9 -8 5 0 16 -3 25 -6 9 -3 16 -1 16 6 0 6 -4
8 -10 5 -5 -3 -10 -2 -10 3 0 5 -7 9 -15 9 -8 0 -15 -4 -15 -9z"/>
<path d="M3653 1547 c9 -8 17 -23 18 -33 0 -17 2 -16 11 4 13 26 12 27 -22 36
-23 6 -23 6 -7 -7z"/>
<path d="M3690 1478 c0 -5 9 -12 20 -15 23 -6 25 -14 8 -32 -8 -7 -9 -11 -2
-9 6 2 30 -17 53 -40 43 -44 57 -49 45 -18 -3 9 -13 16 -21 16 -8 0 -12 4 -9
9 6 9 -31 47 -43 44 -3 -1 -5 6 -3 15 1 10 -8 22 -23 29 -16 7 -25 7 -25 1z"/>
<path d="M4285 1410 c-3 -6 1 -7 9 -4 18 7 21 14 7 14 -6 0 -13 -4 -16 -10z"/>
<path d="M3836 1335 c4 -8 11 -15 16 -15 6 0 5 6 -2 15 -7 8 -14 15 -16 15 -2
0 -1 -7 2 -15z"/>
<path d="M3874 1308 c-4 -7 -3 -8 4 -4 7 4 12 3 12 -2 0 -5 6 -9 13 -10 6 0
30 -5 52 -11 65 -17 75 -11 13 7 -31 9 -60 20 -64 25 -11 10 -22 9 -30 -5z"/>
<path d="M4215 1280 c-13 -6 -15 -9 -5 -9 8 0 22 4 30 9 18 12 2 12 -25 0z"/>
<path d="M4133 1269 c14 -8 22 -8 30 0 8 8 3 11 -18 11 -26 -1 -28 -2 -12 -11z"/>
</g>
</svg>
